<?xml version="1.0" encoding="UTF-8" standalone="no"?>
<svg width="440px" height="686px" viewBox="0 0 440 686" version="1.1" xmlns="http://www.w3.org/2000/svg" xmlns:xlink="http://www.w3.org/1999/xlink">
    <!-- Generator: Sketch 41.2 (35397) - http://www.bohemiancoding.com/sketch -->
    <title>Group 37</title>
    <desc>Created with Sketch.</desc>
    <defs>
        <path d="M5.44806473,14.2588523 C1.09055167,20.0720545 0.18982939,29.9121909 0.00372794966,33.7313373 C-0.0441018599,34.7146891 0.370495626,35.6574541 1.12164104,36.2808171 C1.80408546,36.8474907 2.6904588,37.0963065 3.562918,36.9661635 L11.8972623,35.7238491 C12.5642708,35.6243668 13.1819275,35.3095972 13.6587038,34.8258622 L14.4983343,33.9739768 C15.0864236,33.3773041 15.4166667,32.5682115 15.4166667,31.7244877 L15.4166667,10.5435997 C15.4166667,7.03459081 10.9411009,6.93135872 5.44806473,14.2588523 L5.44806473,14.2588523 Z" id="path-1"></path>
        <mask id="mask-2" maskContentUnits="userSpaceOnUse" maskUnits="objectBoundingBox" x="0" y="0" width="15.4166667" height="28.7777778" fill="white">
            <use xlink:href="#path-1"></use>
        </mask>
        <path d="M27.0313981,14.2588523 C22.673885,20.0720545 21.7731627,29.9121909 21.5870613,33.7313373 C21.5392315,34.7146891 21.953829,35.6574541 22.7049744,36.2808171 C23.3874188,36.8474907 24.2737921,37.0963065 25.1462513,36.9661635 L33.4805957,35.7238491 C34.1476041,35.6243668 34.7652609,35.3095972 35.2420371,34.8258622 L36.0816677,33.9739768 C36.6697569,33.3773041 37,32.5682115 37,31.7244877 L37,10.5435997 C37,7.03459081 32.5244343,6.93135872 27.0313981,14.2588523 L27.0313981,14.2588523 Z" id="path-3"></path>
        <mask id="mask-4" maskContentUnits="userSpaceOnUse" maskUnits="objectBoundingBox" x="0" y="0" width="15.4166667" height="28.7777778" fill="white">
            <use xlink:href="#path-3"></use>
        </mask>
        <path d="M30.0773274,23.1830417 C30.094375,23.3589219 30.1030983,23.5372386 30.1030983,23.7175926 C30.1030983,26.49106 28.0402209,28.7827167 25.3651128,29.1419157 C24.7831384,31.2730774 22.8327924,32.8397436 20.5248397,32.8397436 C17.7539261,32.8397436 15.5076567,30.5954599 15.5076567,27.8163457 L15.5076567,5.02339793 C15.5076567,2.24905186 17.7595643,-1.59161573e-12 20.5248397,-1.59161573e-12 C23.1403359,-1.59161573e-12 25.2883906,1.99958521 25.5211265,4.56111466 C25.5280889,4.56108856 25.5350544,4.5610755 25.5420228,4.5610755 C28.5648377,4.5610755 31.0153134,7.01929621 31.0153134,10.0286551 L31.0153134,12.0952819 C32.1295872,13.0161013 32.8397436,14.4071946 32.8397436,15.9573686 L32.8397436,18.7068052 C32.8397436,20.6633292 31.7141467,22.3579485 30.0773274,23.1830417 Z" id="path-5"></path>
        <mask id="mask-6" maskContentUnits="userSpaceOnUse" maskUnits="objectBoundingBox" x="0" y="0" width="17.3320869" height="32.8397436" fill="white">
            <use xlink:href="#path-5"></use>
        </mask>
        <path d="M20.5248397,16.4198718 C17.7539261,16.4198718 15.5076567,14.1711875 15.5076567,11.4041485 L15.5076567,5.01572326 C15.5076567,2.2456158 17.7595643,-8.24229573e-13 20.5248397,-8.24229573e-13" id="path-7"></path>
        <mask id="mask-8" maskContentUnits="userSpaceOnUse" maskUnits="objectBoundingBox" x="0" y="0" width="5.01718305" height="16.4198718" fill="white">
            <use xlink:href="#path-7"></use>
        </mask>
        <path d="M30.1030983,23.7175926 C30.1030983,23.2276324 30.0688307,22.8874581 29.9480692,22.4355692 C29.8137723,21.9330305 29.579634,21.3242302 29.3168785,20.8896666 C28.3582184,19.3041663 26.6177853,18.244302 24.6298077,18.244302 C22.7321271,18.244302 21.0600141,19.2100715 20.078157,20.6769222" id="path-9"></path>
        <mask id="mask-10" maskContentUnits="userSpaceOnUse" maskUnits="objectBoundingBox" x="0" y="0" width="10.0249413" height="5.4732906" fill="white">
            <use xlink:href="#path-9"></use>
        </mask>
        <path d="M14.5696707,23.1830417 C14.5867183,23.3589219 14.5954416,23.5372386 14.5954416,23.7175926 C14.5954416,26.49106 12.5325642,28.7827167 9.8574561,29.1419157 C9.27548173,31.2730774 7.32513574,32.8397436 5.01718305,32.8397436 C2.24626936,32.8397436 3.55271368e-14,30.5954599 3.55271368e-14,27.8163457 L3.55271368e-14,5.02339793 C3.55271368e-14,2.24905186 2.25190762,-5.68434189e-14 5.01718305,-5.68434189e-14 C7.63267917,-5.68434189e-14 9.78073392,1.99958521 10.0134698,4.56111466 C10.0204322,4.56108856 10.0273977,4.5610755 10.0343661,4.5610755 C13.057181,4.5610755 15.5076567,7.01929621 15.5076567,10.0286551 L15.5076567,12.0952819 C16.6219305,13.0161013 17.3320869,14.4071946 17.3320869,15.9573686 L17.3320869,18.7068052 C17.3320869,20.6633292 16.20649,22.3579485 14.5696707,23.1830417 Z" id="path-11"></path>
        <mask id="mask-12" maskContentUnits="userSpaceOnUse" maskUnits="objectBoundingBox" x="0" y="0" width="17.3320869" height="32.8397436" fill="white">
            <use xlink:href="#path-11"></use>
        </mask>
        <path d="M12.3393054,16.4198718 C9.56839167,16.4198718 7.3221223,14.1711875 7.3221223,11.4041485 L7.3221223,5.01572326 C7.3221223,2.2456158 9.57402992,-3.12638804e-13 12.3393054,-3.12638804e-13 C14.9421721,-3.12638804e-13 17.0821009,1.98694452 17.3320869,4.52625062" id="path-13"></path>
        <mask id="mask-14" maskContentUnits="userSpaceOnUse" maskUnits="objectBoundingBox" x="0" y="0" width="10.0099646" height="16.4198718" fill="white">
            <use xlink:href="#path-13"></use>
        </mask>
        <path d="M12.7615866,23.7175926 C12.7615866,20.6947777 10.3111109,18.244302 7.28829597,18.244302 C5.3906154,18.244302 3.71850239,19.2100715 2.7366453,20.6769222" id="path-15"></path>
        <mask id="mask-16" maskContentUnits="userSpaceOnUse" maskUnits="objectBoundingBox" x="0" y="0" width="10.0249413" height="5.4732906" fill="white">
            <use xlink:href="#path-15"></use>
        </mask>
        <circle id="path-17" cx="22.5" cy="22.5" r="12.5"></circle>
        <mask id="mask-18" maskContentUnits="userSpaceOnUse" maskUnits="objectBoundingBox" x="0" y="0" width="25" height="25" fill="white">
            <use xlink:href="#path-17"></use>
        </mask>
    </defs>
    <g id="Website3" stroke="none" stroke-width="1" fill="none" fill-rule="evenodd" opacity="0.356751399">
        <g id="Group-37">
            <g id="SATURN" transform="translate(283.416342, 30.000000)" fill="#82ABD8">
                <path d="M14.6595,5.67024096 C13.1379355,5.67024096 11.9002903,4.45881928 11.9002903,2.96949398 C11.9002903,1.48016867 13.1379355,0.268746988 14.6595,0.268746988 C16.1810645,0.268746988 17.4182419,1.48016867 17.4182419,2.96949398 C17.4182419,4.45881928 16.1810645,5.67024096 14.6595,5.67024096 L14.6595,5.67024096 Z M14.6595,1.93342169 C14.0757581,1.93342169 13.601,2.39812048 13.601,2.96949398 C13.601,3.5413253 14.0757581,4.0060241 14.6595,4.0060241 C15.2432419,4.0060241 15.718,3.5413253 15.718,2.96949398 C15.718,2.39812048 15.2432419,1.93342169 14.6595,1.93342169 L14.6595,1.93342169 Z" id="Fill-1"></path>
                <path d="M13.8091452,33.6213012 C7.32390323,33.6213012 2.04824194,28.4574217 2.04824194,22.1095904 C2.04824194,15.7622169 7.32390323,10.5978795 13.8091452,10.5978795 C20.2939194,10.5978795 25.5700484,15.7622169 25.5700484,22.1095904 C25.5700484,28.4574217 20.2939194,33.6213012 13.8091452,33.6213012 L13.8091452,33.6213012 Z M13.8091452,13.0944337 C8.73040323,13.0944337 4.59883871,17.1389157 4.59883871,22.1095904 C4.59883871,27.0807229 8.73040323,31.124747 13.8091452,31.124747 C18.8874194,31.124747 23.0194516,27.0807229 23.0194516,22.1095904 C23.0194516,17.1389157 18.8874194,13.0944337 13.8091452,13.0944337 L13.8091452,13.0944337 Z" id="Fill-2"></path>
                <path d="M27.9812581,8.44653012 C26.2908387,6.91645783 22.2893065,8.246 17.6577258,11.4924819 C18.2798226,11.6426506 18.804629,11.9168916 19.2330806,12.2790361 C22.2762097,10.2659518 24.7477581,9.45971084 25.7824032,10.3959759 C27.6379355,12.075759 24.4460645,18.8214458 18.3256613,25.299759 C12.2052581,31.7776145 5.47351613,35.5350361 3.61798387,33.855253 C2.67969355,33.0059759 3.11937097,30.8843855 4.55767742,28.166241 C3.98983871,27.7761687 3.56232258,27.2505783 3.27746774,26.6531084 C0.243225806,31.5079518 -0.852693548,35.6027952 0.859709677,37.1525542 C3.48701613,39.5305301 11.6879355,35.0323373 19.1774194,27.1054458 C26.6669032,19.1780964 30.6085645,10.824506 27.9812581,8.44653012" id="Fill-3"></path>
            </g>
            <g id="Group-16" transform="translate(360.891583, 134.326921) rotate(7.000000) translate(-360.891583, -134.326921) translate(344.891583, 117.826921)" fill="#E2E2E2">
                <path d="M17.1086638,22.0182235 C17.6884502,21.4332693 17.9793362,20.6566749 17.9783434,19.8901141 C17.9793362,19.1245565 17.6884502,18.3479621 17.1086638,17.7620046 L14.300075,14.923522 C13.7212814,14.3375645 12.951873,14.0435824 12.1943781,14.0445858 C11.4358903,14.0435824 10.6674747,14.3375645 10.0876883,14.9245254 C9.70050216,15.3158326 9.70050216,15.9509544 10.0886811,16.343265 C10.4758672,16.7345723 11.1052929,16.7345723 11.4924791,16.3422617 C11.6850794,16.1486147 11.9342684,16.052293 12.1943781,16.0512896 C12.4544877,16.052293 12.7036768,16.1486147 12.8962771,16.343265 L15.7048658,19.1807442 C15.8964733,19.3753945 15.9917807,19.6272359 15.9927734,19.8901141 C15.9917807,20.1529923 15.8964733,20.4048336 15.703873,20.5994839 C15.3166869,20.9917945 15.3166869,21.6269162 15.7048658,22.0192268 C16.0920519,22.4105341 16.7204848,22.4105341 17.1086638,22.0182235" id="Fill-162"></path>
                <path d="M5.66582395,27.9068959 L13.6081039,19.8800805 C13.9962828,19.4887733 13.9962828,18.8526482 13.6081039,18.4613409 C13.2209177,18.0690303 12.5924848,18.0690303 12.2043059,18.4613409 L4.26202597,26.4881563 C3.87483983,26.8794635 3.87483983,27.5155887 4.26202597,27.9068959 C4.65020491,28.2992065 5.27863781,28.2992065 5.66582395,27.9068959" id="Fill-163"></path>
                <path d="M15.8845599,11.9034328 L12.8962771,14.923522 C12.5090909,15.3158326 12.5090909,15.9509544 12.8962771,16.343265 C13.284456,16.7345723 13.9128889,16.7345723 14.300075,16.343265 L17.2883579,13.3231757 C17.6765368,12.9308651 17.6765368,12.2957434 17.2883579,11.9034328 C16.9011717,11.5121255 16.2727388,11.5121255 15.8845599,11.9034328" id="Fill-164"></path>
                <path d="M18.6931486,14.7419153 L15.7048658,17.7620046 C15.3166869,18.1533119 15.3166869,18.789437 15.7048658,19.1807442 C16.0920519,19.5730548 16.7204848,19.5730548 17.1086638,19.1807442 L20.0969466,16.160655 C20.4841328,15.7683444 20.4841328,15.1332226 20.0969466,14.7419153 C19.7087677,14.3496047 19.0803348,14.3496047 18.6931486,14.7419153" id="Fill-165"></path>
                <path d="M25.8124098,27.1975261 L25.8124098,28.200878 C26.91043,28.197868 27.7950014,27.3038814 27.7979798,26.1941742 C27.7950014,25.084467 26.91043,24.1904804 25.8124098,24.1874703 C24.7143896,24.1904804 23.8298182,25.084467 23.8268398,26.1941742 C23.8298182,27.3038814 24.7143896,28.197868 25.8124098,28.200878 L25.8124098,26.1941742 L25.8124098,27.1975261" id="Fill-166"></path>
                <path d="M25.8124098,30.2075819 C23.6243117,30.2035685 21.845241,28.4055618 21.8412698,26.1941742 C21.8402771,26.0667485 21.8660895,25.8891552 21.9008369,25.6413273 C21.9435267,25.3292848 21.8402771,25.0172424 21.6198788,24.7944982 L17.2516248,20.3797498 C17.0411544,20.1670392 16.7462973,20.0606839 16.4494545,20.0917878 C16.1536046,20.1218883 15.8855527,20.2854347 15.7217431,20.5362727 L15.6333853,20.6707218 L6.48586436,29.9156065 C6.29326407,30.1102567 6.04407504,30.2065785 5.78396537,30.2075819 C5.5238557,30.2065785 5.27466667,30.1102567 5.08206638,29.9156065 L2.27447042,27.0781272 C2.08187013,26.883477 1.98656277,26.6316356 1.98556999,26.3687574 C1.98656277,26.1058792 2.08187013,25.8540379 2.27447042,25.6593876 L11.4219913,16.414503 L11.5550245,16.3252047 C11.8032208,16.1596516 11.9650447,15.8887466 11.9948283,15.5897477 C12.0256046,15.2897455 11.9203694,14.99175 11.709899,14.7790394 L11.6840866,14.7539556 L10.9692814,14.0305388 C10.6982511,13.7566238 10.2951804,13.6653187 9.93380664,13.7947511 C9.29147475,14.0265254 8.61439538,14.1429142 7.93632323,14.1429142 C6.40743434,14.1419109 4.88350938,13.5559534 3.72492929,12.3850417 C2.56634921,11.21413 1.98656277,9.67398478 1.98556999,8.12781947 C1.98556999,8.02347087 2.00641847,7.92012562 2.0113824,7.81577702 L5.12872727,10.9663021 C5.36302453,11.2030931 5.69957864,11.3064384 6.02521212,11.2402171 L9.53569986,10.5308473 C9.92884271,10.4515825 10.2356133,10.1415468 10.3140433,9.74421942 L11.0159423,6.19636702 C11.0814661,5.86726759 10.9792092,5.52713129 10.744912,5.29034023 L7.6275671,2.1398152 C7.73081674,2.13479844 7.83307359,2.11372805 7.93632323,2.11372805 C9.46620491,2.1147314 10.9901299,2.70068892 12.14871,3.87160062 C13.30729,5.04150896 13.8870765,6.58265751 13.8880693,8.12781947 C13.8880693,8.81310883 13.7729062,9.49739484 13.5445657,10.1465635 C13.4155036,10.5107803 13.5068398,10.9191445 13.7778701,11.1930596 L15.8845599,13.3221724 C16.0692179,13.5097992 16.3253564,13.6161545 16.5864589,13.6161545 C16.8485541,13.6161545 17.1036999,13.5097992 17.2883579,13.3221724 L21.6893737,8.87531665 C21.8740317,8.6886932 21.9802597,8.4298284 21.9802597,8.16594684 L21.9802597,5.8963648 L27.8138644,2.37259285 L29.5274113,4.10437826 L26.0397576,10.0000742 L23.7950707,10.0000742 C23.5339683,10.0000742 23.2778297,10.1074328 23.0931717,10.2940563 L18.6931486,14.7419153 C18.3049697,15.1332226 18.3049697,15.7683444 18.6931486,16.160655 L24.4274747,21.9560157 C24.647873,22.1787598 24.9556364,22.2841117 25.2643925,22.2409676 C25.5106032,22.2058503 25.6863261,22.1797631 25.8124098,22.1807665 C28.0005079,22.1847799 29.7795786,23.9827865 29.7835498,26.1941742 C29.7795786,28.4055618 28.0005079,30.2035685 25.8124098,30.2075819 L25.8124098,30.2075819 Z M25.8124098,20.1740626 C25.6932756,20.1740626 25.5939971,20.1850995 25.492733,20.195133 L20.7988456,15.4512852 L24.2070765,12.006778 L26.6036595,12.006778 C26.9511342,12.006778 27.2767677,11.8201545 27.455469,11.5181456 L31.6291371,4.4625749 C31.8624416,4.06725424 31.8008889,3.56357158 31.4782338,3.23848555 L28.6706378,0.401006318 C28.3479827,0.0749169435 27.8505974,0.0127091243 27.4594401,0.249500178 L20.478176,4.46658831 C20.1793478,4.64719165 19.9946898,4.97528773 19.9946898,5.32746426 L19.9946898,7.7495558 L16.5864589,11.1940629 L15.6036017,10.2007445 C15.782303,9.52247864 15.8736392,8.82514906 15.8736392,8.12781947 C15.874632,6.07596479 15.0972814,4.01307324 13.5525079,2.45185765 C12.0077345,0.890642056 9.96656854,0.106020853 7.93632323,0.107024205 C7.03487446,0.107024205 6.1324329,0.261540401 5.2726811,0.570572793 C4.95101876,0.686961616 4.71275036,0.958869987 4.6372987,1.29599623 C4.56283983,1.63312248 4.66211833,1.9812856 4.90435786,2.22510011 L8.96484848,6.32981283 L8.49724675,8.69471331 L6.15725253,9.16729206 L2.09576912,5.06257935 C1.85452237,4.81876483 1.50903319,4.71742629 1.17645022,4.79368103 C0.842874459,4.86993578 0.573829726,5.10973689 0.458666667,5.43582626 C0.152888889,6.30472903 1.93489605e-12,7.21577257 1.93489605e-12,8.12781947 C-0.000992784991,10.1796742 0.775365079,12.2425657 2.32113131,13.8037813 C3.86491198,15.3660002 5.90607792,16.1496181 7.93632323,16.1496181 C8.27486291,16.1496181 8.61141703,16.1205209 8.94797114,16.0773768 L0.870672439,24.240648 C0.289893218,24.8256022 -0.000992784991,25.6031999 1.93489605e-12,26.3687574 C-0.000992784991,27.1343149 0.289893218,27.9119127 0.870672439,28.4968668 L3.6782684,31.3343461 C4.25706205,31.921307 5.02647042,32.2152891 5.78396537,32.2142857 C6.5424531,32.2152891 7.31086869,31.921307 7.88966234,31.3353494 L16.5864589,22.5459866 L19.8765483,25.8700915 C19.8666205,25.9734368 19.8566926,26.073772 19.8556999,26.1941742 C19.8576854,29.5172757 22.5243059,32.212279 25.8124098,32.2142857 C29.1005137,32.212279 31.7671342,29.5172757 31.7691198,26.1941742 C31.7671342,22.8710726 29.1005137,20.1760694 25.8124098,20.1740626 L25.8124098,20.1740626 Z" id="Fill-167"></path>
            </g>
            <path d="M114.760781,195.252688 L102.237378,195.252688 C102.241072,195.212062 102.243616,195.171108 102.243616,195.129579 L102.243616,193.323967 C102.243616,192.577182 101.636062,191.969758 100.8893,191.969758 L96.3338733,191.969758 L96.3338733,191.272135 C96.3338733,190.570655 95.7631727,190 95.061637,190 L87.1819795,190 C86.4804437,190 85.9097431,190.570655 85.9097431,191.272135 L85.9097431,191.969758 L81.3543161,191.969758 C80.6075544,191.969758 80,192.577182 80,193.323967 L80,195.129579 C80,195.862493 80.585557,196.45974 81.3132762,196.481735 L81.3132762,223.488023 C80.585557,223.510018 80,224.107265 80,224.84018 L80,226.645791 C80,227.392576 80.6075544,228 81.3543161,228 L100.8893,228 C101.636062,228 102.243616,227.392576 102.243616,226.645791 L102.243616,224.84018 C102.243616,224.798651 102.241072,224.757696 102.237378,224.71707 L112.134228,224.71707 C113.197818,224.71707 114.063103,223.851853 114.063103,222.788348 L114.063103,220.81859 C114.063103,220.433913 114.376073,220.120967 114.760781,220.120967 C115.82437,220.120967 116.689655,219.255751 116.689655,218.192246 L116.689655,197.181492 C116.689655,196.117905 115.82437,195.252688 114.760781,195.252688 L114.760781,195.252688 L114.760781,195.252688 L114.760781,195.252688 L114.760781,195.252688 Z M82.5444727,223.485889 L82.5444727,196.483787 L99.6991437,196.483787 L99.6991437,223.485889 L82.5444727,223.485889 L82.5444727,223.485889 L82.5444727,223.485889 L82.5444727,223.485889 L82.5444727,223.485889 Z M87.1409396,191.272135 C87.1409396,191.249565 87.1593255,191.231099 87.1819795,191.231099 L95.061637,191.231099 C95.084291,191.231099 95.1026768,191.249565 95.1026768,191.272135 L95.1026768,191.969758 L87.1409396,191.969758 L87.1409396,191.272135 L87.1409396,191.272135 L87.1409396,191.272135 L87.1409396,191.272135 L87.1409396,191.272135 Z M81.2311965,195.129579 L81.2311965,193.323967 C81.2311965,193.256092 81.2864362,193.200857 81.3543161,193.200857 L100.8893,193.200857 C100.95718,193.200857 101.01242,193.256092 101.01242,193.323967 L101.01242,195.129579 C101.01242,195.197453 100.95718,195.252688 100.8893,195.252688 L81.3543161,195.252688 C81.2864362,195.252688 81.2311965,195.197453 81.2311965,195.129579 L81.2311965,195.129579 L81.2311965,195.129579 L81.2311965,195.129579 L81.2311965,195.129579 Z M101.01242,224.840098 L101.01242,226.645709 C101.01242,226.713584 100.95718,226.768819 100.8893,226.768819 L81.3543161,226.768819 C81.2864362,226.768819 81.2311965,226.713584 81.2311965,226.645709 L81.2311965,224.840098 C81.2311965,224.772223 81.2864362,224.716988 81.3543161,224.716988 L100.8893,224.716988 C100.95718,224.716988 101.01242,224.772223 101.01242,224.840098 L101.01242,224.840098 L101.01242,224.840098 L101.01242,224.840098 L101.01242,224.840098 Z M115.458459,218.192164 C115.458459,218.576841 115.145489,218.889786 114.760781,218.889786 C113.697191,218.889786 112.831906,219.755003 112.831906,220.818508 L112.831906,222.788266 C112.831906,223.172943 112.518936,223.485889 112.134228,223.485889 L100.93034,223.485889 L100.93034,196.483787 L114.760781,196.483787 C115.145489,196.483787 115.458459,196.796733 115.458459,197.18141 L115.458459,218.192164 L115.458459,218.192164 L115.458459,218.192164 L115.458459,218.192164 Z M110.820952,197.879033 C110.480978,197.879033 110.205354,198.154553 110.205354,198.494582 L110.205354,200.46434 C110.205354,200.80437 110.480978,201.07989 110.820952,201.07989 C111.160926,201.07989 111.43655,200.80437 111.43655,200.46434 L111.43655,198.494582 C111.43655,198.154553 111.160926,197.879033 110.820952,197.879033 L110.820952,197.879033 L110.820952,197.879033 L110.820952,197.879033 Z M113.447504,197.879033 C113.10753,197.879033 112.831906,198.154553 112.831906,198.494582 L112.831906,200.46434 C112.831906,200.80437 113.10753,201.07989 113.447504,201.07989 C113.787479,201.07989 114.063103,200.80437 114.063103,200.46434 L114.063103,198.494582 C114.063103,198.154553 113.787479,197.879033 113.447504,197.879033 L113.447504,197.879033 L113.447504,197.879033 L113.447504,197.879033 Z M108.194399,197.879033 C107.854425,197.879033 107.578801,198.154553 107.578801,198.494582 L107.578801,200.46434 C107.578801,200.80437 107.854425,201.07989 108.194399,201.07989 C108.534374,201.07989 108.809998,200.80437 108.809998,200.46434 L108.809998,198.494582 C108.809998,198.154553 108.534374,197.879033 108.194399,197.879033 L108.194399,197.879033 L108.194399,197.879033 L108.194399,197.879033 Z M105.567847,197.879033 C105.227873,197.879033 104.952249,198.154553 104.952249,198.494582 L104.952249,200.46434 C104.952249,200.80437 105.227873,201.07989 105.567847,201.07989 C105.907821,201.07989 106.183445,200.80437 106.183445,200.46434 L106.183445,198.494582 C106.183445,198.154553 105.907821,197.879033 105.567847,197.879033 L105.567847,197.879033 L105.567847,197.879033 L105.567847,197.879033 Z M102.941294,197.879033 C102.60132,197.879033 102.325696,198.154553 102.325696,198.494582 L102.325696,200.46434 C102.325696,200.80437 102.60132,201.07989 102.941294,201.07989 C103.281269,201.07989 103.556893,200.80437 103.556893,200.46434 L103.556893,198.494582 C103.556893,198.154553 103.281269,197.879033 102.941294,197.879033 L102.941294,197.879033 L102.941294,197.879033 L102.941294,197.879033 Z M95.061637,197.879033 C94.7216626,197.879033 94.4460387,198.154553 94.4460387,198.494582 L94.4460387,200.46434 C94.4460387,200.80437 94.7216626,201.07989 95.061637,201.07989 C95.4016114,201.07989 95.6772352,200.80437 95.6772352,200.46434 L95.6772352,198.494582 C95.6772352,198.154553 95.4016114,197.879033 95.061637,197.879033 L95.061637,197.879033 L95.061637,197.879033 L95.061637,197.879033 Z M97.6881895,197.879033 C97.3482151,197.879033 97.0725912,198.154553 97.0725912,198.494582 L97.0725912,200.46434 C97.0725912,200.80437 97.3482151,201.07989 97.6881895,201.07989 C98.0281639,201.07989 98.3037877,200.80437 98.3037877,200.46434 L98.3037877,198.494582 C98.3037877,198.154553 98.0281639,197.879033 97.6881895,197.879033 L97.6881895,197.879033 L97.6881895,197.879033 L97.6881895,197.879033 Z M92.4350845,197.879033 C92.0951101,197.879033 91.8194862,198.154553 91.8194862,198.494582 L91.8194862,200.46434 C91.8194862,200.80437 92.0951101,201.07989 92.4350845,201.07989 C92.7750589,201.07989 93.0506827,200.80437 93.0506827,200.46434 L93.0506827,198.494582 C93.0506827,198.154553 92.7750589,197.879033 92.4350845,197.879033 L92.4350845,197.879033 L92.4350845,197.879033 L92.4350845,197.879033 Z M89.808532,197.879033 C89.4685576,197.879033 89.1929337,198.154553 89.1929337,198.494582 L89.1929337,200.46434 C89.1929337,200.80437 89.4685576,201.07989 89.808532,201.07989 C90.1485064,201.07989 90.4241302,200.80437 90.4241302,200.46434 L90.4241302,198.494582 C90.4241302,198.154553 90.1485064,197.879033 89.808532,197.879033 L89.808532,197.879033 L89.808532,197.879033 L89.808532,197.879033 Z M84.555427,197.879033 C84.2154526,197.879033 83.9398287,198.154553 83.9398287,198.494582 L83.9398287,200.46434 C83.9398287,200.80437 84.2154526,201.07989 84.555427,201.07989 C84.8954014,201.07989 85.1710252,200.80437 85.1710252,200.46434 L85.1710252,198.494582 C85.1710252,198.154553 84.8954014,197.879033 84.555427,197.879033 L84.555427,197.879033 L84.555427,197.879033 L84.555427,197.879033 Z M87.1819795,197.879033 C86.8420051,197.879033 86.5663812,198.154553 86.5663812,198.494582 L86.5663812,200.46434 C86.5663812,200.80437 86.8420051,201.07989 87.1819795,201.07989 C87.5219539,201.07989 87.7975777,200.80437 87.7975777,200.46434 L87.7975777,198.494582 C87.7975777,198.154553 87.5219539,197.879033 87.1819795,197.879033 L87.1819795,197.879033 L87.1819795,197.879033 L87.1819795,197.879033 Z M95.061637,218.889786 C94.7216626,218.889786 94.4460387,219.165306 94.4460387,219.505336 L94.4460387,221.475094 C94.4460387,221.815124 94.7216626,222.090643 95.061637,222.090643 C95.4016114,222.090643 95.6772352,221.815124 95.6772352,221.475094 L95.6772352,219.505336 C95.6772352,219.165306 95.4016114,218.889786 95.061637,218.889786 L95.061637,218.889786 L95.061637,218.889786 L95.061637,218.889786 Z M97.6881895,218.889786 C97.3482151,218.889786 97.0725912,219.165306 97.0725912,219.505336 L97.0725912,221.475094 C97.0725912,221.815124 97.3482151,222.090643 97.6881895,222.090643 C98.0281639,222.090643 98.3037877,221.815124 98.3037877,221.475094 L98.3037877,219.505336 C98.3037877,219.165306 98.0281639,218.889786 97.6881895,218.889786 L97.6881895,218.889786 L97.6881895,218.889786 L97.6881895,218.889786 Z M92.4350845,218.889786 C92.0951101,218.889786 91.8194862,219.165306 91.8194862,219.505336 L91.8194862,221.475094 C91.8194862,221.815124 92.0951101,222.090643 92.4350845,222.090643 C92.7750589,222.090643 93.0506827,221.815124 93.0506827,221.475094 L93.0506827,219.505336 C93.0506827,219.165306 92.7750589,218.889786 92.4350845,218.889786 L92.4350845,218.889786 L92.4350845,218.889786 L92.4350845,218.889786 Z M89.808532,218.889786 C89.4685576,218.889786 89.1929337,219.165306 89.1929337,219.505336 L89.1929337,221.475094 C89.1929337,221.815124 89.4685576,222.090643 89.808532,222.090643 C90.1485064,222.090643 90.4241302,221.815124 90.4241302,221.475094 L90.4241302,219.505336 C90.4241302,219.165306 90.1485064,218.889786 89.808532,218.889786 L89.808532,218.889786 L89.808532,218.889786 L89.808532,218.889786 Z M84.555427,218.889786 C84.2154526,218.889786 83.9398287,219.165306 83.9398287,219.505336 L83.9398287,221.475094 C83.9398287,221.815124 84.2154526,222.090643 84.555427,222.090643 C84.8954014,222.090643 85.1710252,221.815124 85.1710252,221.475094 L85.1710252,219.505336 C85.1710252,219.165306 84.8954014,218.889786 84.555427,218.889786 L84.555427,218.889786 L84.555427,218.889786 L84.555427,218.889786 Z M87.1819795,218.889786 C86.8420051,218.889786 86.5663812,219.165306 86.5663812,219.505336 L86.5663812,221.475094 C86.5663812,221.815124 86.8420051,222.090643 87.1819795,222.090643 C87.5219539,222.090643 87.7975777,221.815124 87.7975777,221.475094 L87.7975777,219.505336 C87.7975777,219.165306 87.5219539,218.889786 87.1819795,218.889786 L87.1819795,218.889786 L87.1819795,218.889786 L87.1819795,218.889786 Z M110.820952,218.889786 C110.480978,218.889786 110.205354,219.165306 110.205354,219.505336 L110.205354,221.475094 C110.205354,221.815124 110.480978,222.090643 110.820952,222.090643 C111.160926,222.090643 111.43655,221.815124 111.43655,221.475094 L111.43655,219.505336 C111.43655,219.165306 111.160926,218.889786 110.820952,218.889786 L110.820952,218.889786 L110.820952,218.889786 L110.820952,218.889786 Z M108.194399,218.889786 C107.854425,218.889786 107.578801,219.165306 107.578801,219.505336 L107.578801,221.475094 C107.578801,221.815124 107.854425,222.090643 108.194399,222.090643 C108.534374,222.090643 108.809998,221.815124 108.809998,221.475094 L108.809998,219.505336 C108.809998,219.165306 108.534374,218.889786 108.194399,218.889786 L108.194399,218.889786 L108.194399,218.889786 L108.194399,218.889786 Z M105.567847,218.889786 C105.227873,218.889786 104.952249,219.165306 104.952249,219.505336 L104.952249,221.475094 C104.952249,221.815124 105.227873,222.090643 105.567847,222.090643 C105.907821,222.090643 106.183445,221.815124 106.183445,221.475094 L106.183445,219.505336 C106.183445,219.165306 105.907821,218.889786 105.567847,218.889786 L105.567847,218.889786 L105.567847,218.889786 L105.567847,218.889786 Z M102.941294,218.889786 C102.60132,218.889786 102.325696,219.165306 102.325696,219.505336 L102.325696,221.475094 C102.325696,221.815124 102.60132,222.090643 102.941294,222.090643 C103.281269,222.090643 103.556893,221.815124 103.556893,221.475094 L103.556893,219.505336 C103.556893,219.165306 103.281269,218.889786 102.941294,218.889786 L102.941294,218.889786 L102.941294,218.889786 L102.941294,218.889786 Z" id="film" fill="#E2E2E2" transform="translate(98.344828, 209.000000) rotate(14.000000) translate(-98.344828, -209.000000) "></path>
            <g id="Group-2" transform="translate(368.778217, 339.442228) rotate(8.000000) translate(-368.778217, -339.442228) translate(352.778217, 323.942228)" fill="#F55375">
                <path d="M31.1776234,2.54165746 C30.7215677,2.54165746 30.3484313,2.91160221 30.3484313,3.36375691 L30.3484313,25.1836464 C30.3484313,27.4923757 28.4551093,29.3626519 26.1333714,29.3626519 L5.87344412,29.3626519 C3.54479627,29.3626519 1.65838422,27.4855249 1.65838422,25.1836464 L1.65838422,1.6441989 L25.9329833,1.6441989 L25.9329833,22.8132597 C25.9329833,23.2654144 26.3061197,23.6353591 26.7621754,23.6353591 C27.218231,23.6353591 27.5913675,23.2654144 27.5913675,22.8132597 L27.5913675,0.822099448 C27.5913675,0.369944751 27.218231,1.70530257e-13 26.7621754,1.70530257e-13 L0.829192111,1.70530257e-13 C0.37313645,1.70530257e-13 -2.27373675e-13,0.369944751 -2.27373675e-13,0.822099448 L-2.27373675e-13,25.1767956 C-2.27373675e-13,28.3898343 2.63268495,31 5.87344412,31 L26.1264614,31 C29.3672206,31 31.9999055,28.3898343 31.9999055,25.1767956 L31.9999055,3.36375691 C32.0068155,2.91160221 31.633679,2.54165746 31.1776234,2.54165746 Z M23.1596639,7 C23.6218487,7 24,6.55 24,6 C24,5.45 23.6218487,5 23.1596639,5 L4.84033613,5 C4.37815126,5 4,5.45 4,6 C4,6.55 4.37815126,7 4.84033613,7 L23.1596639,7 Z M23.1663748,21 L4.84063047,21 C4.37828371,21 4,21.45 4,22 C4,22.55 4.37828371,23 4.84063047,23 L23.1593695,23 C23.6217163,23 24,22.55 24,22 C24,21.45 23.6287215,21 23.1663748,21 Z M23.1642769,26 L7.83572306,26 C7.37607538,26 7,26.45 7,27 C7,27.55 7.37607538,28 7.83572306,28 L23.1642769,28 C23.6239246,28 24,27.55 24,27 C24,26.45 23.6239246,26 23.1642769,26 Z M4,8.85825748 L4,18.1417425 C4,18.6137841 4.38496436,19 4.85547634,19 L14.1445237,19 C14.6150356,19 15,18.6137841 15,18.1417425 L15,8.85825748 C15,8.38621586 14.6150356,8 14.1445237,8 L4.85547634,8 C4.38496436,8 4,8.38621586 4,8.85825748 Z M5,10 L12,10 L12,17 L5,17 L5,10 Z M23.1296464,9 L16.8703536,9 C16.3916591,9 16,9.45 16,10 C16,10.55 16.3916591,11 16.8703536,11 L23.1296464,11 C23.6083409,11 24,10.55 24,10 C24,9.45 23.6155938,9 23.1296464,9 Z M23.1296464,13 L16.8703536,13 C16.3916591,13 16,13.45 16,14 C16,14.55 16.3916591,15 16.8703536,15 L23.1296464,15 C23.6083409,15 24,14.55 24,14 C24,13.45 23.6155938,13 23.1296464,13 Z M24,18 C24,17.45 23.6083409,17 23.1296464,17 L16.8703536,17 C16.3916591,17 16,17.45 16,18 C16,18.55 16.3916591,19 16.8703536,19 L23.1296464,19 C23.6155938,19 24,18.55 24,18 Z" id="newspaper"></path>
            </g>
            <g id="Lungs" transform="translate(182.671406, 495.760965) rotate(-8.000000) translate(-182.671406, -495.760965) translate(164.171406, 477.260965)">
                <use id="Path" stroke="#E2E2E2" mask="url(#mask-2)" stroke-width="4" xlink:href="#path-1"></use>
                <use id="Path-Copy-2" stroke="#E2E2E2" mask="url(#mask-4)" stroke-width="4" transform="translate(29.291667, 22.611111) scale(-1, 1) translate(-29.291667, -22.611111) " xlink:href="#path-3"></use>
                <rect id="Rectangle-32" fill="#E2E2E2" x="17.4722222" y="-2.84217094e-13" width="2.05555556" height="21.5833333" rx="1.02777778"></rect>
                <path d="M18.305143,20.6965804 L14.6755878,22.6929152" id="Line" stroke="#E2E2E2" stroke-width="2" stroke-linecap="round" stroke-linejoin="round"></path>
                <path d="M22.1295552,20.5555556 L18.5,22.5518904" id="Line-Copy-5" stroke="#E2E2E2" stroke-width="2" stroke-linecap="round" stroke-linejoin="round" transform="translate(20.314778, 21.553723) scale(-1, 1) translate(-20.314778, -21.553723) "></path>
            </g>
            <g id="Group-3" transform="translate(19.000000, 7.000000)" fill="#E2E2E2">
                <path d="M34.2842164,18.3844492 L33.5690855,18.3844492 L33.5690855,13.7473002 C33.5690855,8.54606048 29.3970119,4.2782419 24.1461843,3.95938661 L24.1461843,2.58531317 C24.1461843,0.888034557 21.1200028,0 18.1306715,0 C15.1413402,0 12.1151587,0.888034557 12.1151587,2.58531317 L12.1151587,3.95938661 C6.86433113,4.2782419 2.69225749,8.54606048 2.69225749,13.7473002 L2.69225749,18.3844492 L1.97712659,18.3844492 C0.886930575,18.3844492 0,19.2496674 0,20.3131749 L0,25.5658747 C0,25.905905 0.28251877,26.1814255 0.630997848,26.1814255 L0.673064371,26.1814255 L0.673064371,32.7883369 C0.673064371,33.8518445 1.55999495,34.7170626 2.65019096,34.7170626 L2.69225749,34.7170626 L2.69225749,34.7580994 C2.69225749,36.5456587 4.18309507,38 6.01551282,38 L30.2458302,38 C32.0782479,38 33.5690855,36.5456587 33.5690855,34.7580994 L33.5690855,34.7170626 L33.6111521,34.7170626 C34.7013481,34.7170626 35.5882786,33.8518445 35.5882786,32.7883369 L35.5882786,26.1814255 L35.6303452,26.1814255 C35.9788242,26.1814255 36.261343,25.905905 36.261343,25.5658747 L36.261343,20.3131749 C36.261343,19.2496674 35.3744124,18.3844492 34.2842164,18.3844492 L34.2842164,18.3844492 Z M34.2842164,19.6155508 C34.678548,19.6155508 34.9993473,19.9284968 34.9993473,20.3131749 L34.9993473,24.950324 L33.5690855,24.950324 L33.5690855,19.6155508 L34.2842164,19.6155508 L34.2842164,19.6155508 Z M18.1306715,1.23110151 C21.2668991,1.23110151 22.8841886,2.18028078 22.8841886,2.58531317 L22.8841886,3.93952484 L13.3771544,3.93952484 L13.3771544,2.58531317 C13.3771544,2.18028078 14.9944439,1.23110151 18.1306715,1.23110151 L18.1306715,1.23110151 Z M12.7461565,5.17062635 L23.5151865,5.17062635 C28.3631009,5.17062635 32.3070898,9.01814687 32.3070898,13.7473002 L32.3070898,16.4146868 L31.5919589,16.4146868 C31.1976273,16.4146868 30.876828,16.1017408 30.876828,15.7170626 L30.876828,13.7473002 C30.876828,9.78742117 27.5744377,6.56587473 23.5151865,6.56587473 L12.7461565,6.56587473 C8.68690531,6.56587473 5.38451497,9.78742117 5.38451497,13.7473002 L5.38451497,15.7170626 C5.38451497,16.1017408 5.06371567,16.4146868 4.66938408,16.4146868 L3.95425318,16.4146868 L3.95425318,13.7473002 C3.95425318,9.01814687 7.89824213,5.17062635 12.7461565,5.17062635 L12.7461565,5.17062635 Z M1.2619957,20.3131749 C1.2619957,19.9284968 1.582795,19.6155508 1.97712659,19.6155508 L2.69225749,19.6155508 L2.69225749,24.950324 L1.2619957,24.950324 L1.2619957,20.3131749 L1.2619957,20.3131749 Z M2.65019096,33.4859611 C2.25585937,33.4859611 1.93506007,33.1730151 1.93506007,32.7883369 L1.93506007,26.1814255 L2.69225749,26.1814255 L2.69225749,33.4859611 L2.65019096,33.4859611 L2.65019096,33.4859611 Z M32.3070898,34.7580994 C32.3070898,35.8669114 31.3823835,36.7688985 30.2458302,36.7688985 L6.01551282,36.7688985 C4.8789595,36.7688985 3.95425318,35.8669114 3.95425318,34.7580994 L3.95425318,17.6457883 L4.66938408,17.6457883 C5.75958009,17.6457883 6.64651067,16.7805702 6.64651067,15.7170626 L6.64651067,13.7473002 C6.64651067,10.4662505 9.38276974,7.79697624 12.7461565,7.79697624 L17.4996737,7.79697624 L17.4996737,18.3844492 L7.36164156,18.3844492 C6.27144555,18.3844492 5.38451497,19.2496674 5.38451497,20.3131749 L5.38451497,24.2526998 C5.38451497,24.8291015 5.64541155,25.3469028 6.05757934,25.7006393 L6.05757934,32.1317495 C6.05757934,33.5572829 7.24646342,34.7170626 8.70777031,34.7170626 L27.5535727,34.7170626 C29.0148796,34.7170626 30.2037637,33.5572829 30.2037637,32.1317495 L30.2037637,25.7006393 C30.6159315,25.3469028 30.876828,24.8291015 30.876828,24.2526998 L30.876828,20.3131749 C30.876828,19.2496674 29.9898975,18.3844492 28.8997014,18.3844492 L18.7616694,18.3844492 L18.7616694,7.79697624 L23.5151865,7.79697624 C26.8785733,7.79697624 29.6148323,10.4662505 29.6148323,13.7473002 L29.6148323,15.7170626 C29.6148323,16.7805702 30.5017629,17.6457883 31.5919589,17.6457883 L32.3070898,17.6457883 L32.3070898,34.7580994 L32.3070898,34.7580994 Z M8.70777031,33.4859611 C7.94232785,33.4859611 7.31957504,32.8784536 7.31957504,32.1317495 L7.31957504,26.1803585 C7.33362526,26.1806048 7.34750721,26.1814255 7.36164156,26.1814255 L17.4996737,26.1814255 L17.4996737,33.4859611 L8.70777031,33.4859611 L8.70777031,33.4859611 L8.70777031,33.4859611 Z M18.7616694,26.1814255 L28.8997014,26.1814255 C28.9138358,26.1814255 28.9277178,26.1806868 28.941768,26.1803585 L28.941768,32.1317495 C28.941768,32.8784536 28.3190152,33.4859611 27.5535727,33.4859611 L18.7616694,33.4859611 L18.7616694,26.1814255 L18.7616694,26.1814255 Z M9.38083468,21.0928726 C8.70819097,21.0928726 8.1609055,21.6267603 8.1609055,22.2829374 C8.1609055,22.9391145 8.70819097,23.4730022 9.38083468,23.4730022 C10.0534784,23.4730022 10.6007639,22.9391145 10.6007639,22.2829374 C10.6007639,21.6267603 10.0534784,21.0928726 9.38083468,21.0928726 L9.38083468,21.0928726 Z M26.8805083,21.0928726 C26.2078646,21.0928726 25.6605792,21.6267603 25.6605792,22.2829374 C25.6605792,22.9391145 26.2078646,23.4730022 26.8805083,23.4730022 C27.553152,23.4730022 28.1004375,22.9391145 28.1004375,22.2829374 C28.1004375,21.6267603 27.553152,21.0928726 26.8805083,21.0928726 L26.8805083,21.0928726 Z M29.6148323,24.2526998 C29.6148323,24.637378 29.294033,24.950324 28.8997014,24.950324 L7.36164156,24.950324 C6.96730997,24.950324 6.64651067,24.637378 6.64651067,24.2526998 L6.64651067,20.3131749 C6.64651067,19.9284968 6.96730997,19.6155508 7.36164156,19.6155508 L28.8997014,19.6155508 C29.294033,19.6155508 29.6148323,19.9284968 29.6148323,20.3131749 L29.6148323,24.2526998 L29.6148323,24.2526998 Z M34.3262829,32.7883369 C34.3262829,33.1730151 34.0054836,33.4859611 33.6111521,33.4859611 L33.5690855,33.4859611 L33.5690855,26.1814255 L34.3262829,26.1814255 L34.3262829,32.7883369 L34.3262829,32.7883369 Z" id="backpack"></path>
            </g>
            <g id="Group-38" transform="translate(387.803289, 229.418171) rotate(-12.000000) translate(-387.803289, -229.418171) translate(366.803289, 208.918171)" fill="#F9CA71">
                <path d="M4.242,27.9453235 L13.2529091,36.8994412 C13.7505455,37.3939412 14.5561818,37.3939412 15.0525455,36.8994412 C15.5501818,36.4062059 15.5501818,35.6043824 15.0525455,35.1111471 L6.04163636,26.1570294 C5.54527273,25.6625294 4.73963636,25.6625294 4.242,26.1570294 C3.74563636,26.6502647 3.74563636,27.4520882 4.242,27.9453235" id="Fill-202"></path>
                <path d="M27.762,4.59885294 L36.7474545,13.5276765 C37.2450909,14.0221765 38.0507273,14.0221765 38.5470909,13.5276765 C39.0447273,13.0344412 39.0447273,12.2326176 38.5470909,11.7393824 L29.5616364,2.81055882 C29.0652727,2.31605882 28.2596364,2.31605882 27.762,2.81055882 C27.2656364,3.30379412 27.2656364,4.10435294 27.762,4.59885294" id="Fill-203"></path>
                <path d="M2.43472727,36.8994412 L4.242,38.6953235 C4.73963636,39.1898235 5.54527273,39.1898235 6.04163636,38.6953235 C6.53927273,38.2020882 6.53927273,37.4002647 6.04163636,36.9070294 L4.23436364,35.1111471 C3.738,34.6166471 2.93236364,34.6166471 2.43472727,35.1111471 C1.93836364,35.6043824 1.93836364,36.4062059 2.43472727,36.8994412" id="Fill-204"></path>
                <path d="M22.7983636,9.53120588 L31.7838182,18.4600294 C32.2814545,18.9545294 33.0870909,18.9545294 33.5834545,18.4600294 C34.0810909,17.9667941 34.0810909,17.1649706 33.5834545,16.6717353 L24.598,7.74291176 C24.1016364,7.24841176 23.296,7.24841176 22.7983636,7.74291176 C22.302,8.23614706 22.302,9.03797059 22.7983636,9.53120588" id="Fill-205"></path>
                <path d="M37.3838182,11.0564412 L37.3494545,11.0918529 L36.7296364,11.7570882 L31.7838182,16.6704706 L13.4858182,34.8784412 L3.40327273,37.7328824 L6.27581818,27.7126176 L24.598,9.53247059 L29.5616364,4.59885294 L29.6138182,4.54447059 L30.1878182,3.902 C30.9349091,3.15708824 31.8983636,2.78905882 32.8745455,2.78779412 C33.8545455,2.78905882 34.8230909,3.15835294 35.5714545,3.90958824 L35.5829091,3.92223529 L37.3838182,5.6865 C38.1296364,6.42888235 38.4987273,7.39385294 38.5,8.37147059 C38.4987273,9.34908824 38.1296364,10.3140588 37.3838182,11.0564412 L37.3838182,11.0564412 Z M41.0454545,8.37147059 C41.0467273,6.75644118 40.4243636,5.12876471 39.1834545,3.89820588 L39.1770909,3.89188235 L37.3698182,2.12129412 L37.3698182,2.12255882 C36.134,0.884411765 34.4985455,0.257117647 32.8745455,0.258382353 C31.2454545,0.257117647 29.6049091,0.886941176 28.3678182,2.13267647 L28.322,2.18073529 L27.7352727,2.83711765 L22.7983636,7.74291176 L4.24327273,26.1557647 L3.91745455,26.7046471 L0.328363636,39.2252353 C0.202363636,39.6678824 0.325818182,40.1408824 0.652909091,40.4659118 C0.98,40.7909412 1.456,40.9136176 1.90145455,40.7884118 L14.5014545,37.2206765 L15.0538182,36.8981765 L33.5847273,18.4587647 L38.5470909,13.5276765 L38.5814545,13.4935294 L39.2178182,12.8093235 L39.2152727,12.8067941 C40.4307273,11.5800294 41.0467273,9.97132353 41.0454545,8.37147059 L41.0454545,8.37147059 Z" id="Fill-206"></path>
            </g>
            <g id="Brain" transform="translate(159.875282, 286.875282) rotate(5.000000) translate(-159.875282, -286.875282) translate(143.375282, 270.375282)" stroke="#E2E2E2" stroke-width="4">
                <use id="Rectangle-17" mask="url(#mask-6)" xlink:href="#path-5"></use>
                <use id="Rectangle-17" mask="url(#mask-8)" xlink:href="#path-7"></use>
                <use id="Oval-11" mask="url(#mask-10)" xlink:href="#path-9"></use>
                <use id="Rectangle-17" mask="url(#mask-12)" transform="translate(8.666043, 16.419872) scale(-1, 1) translate(-8.666043, -16.419872) " xlink:href="#path-11"></use>
                <use id="Rectangle-17" mask="url(#mask-14)" transform="translate(12.327105, 8.209936) scale(-1, 1) translate(-12.327105, -8.209936) " xlink:href="#path-13"></use>
                <use id="Oval-11" mask="url(#mask-16)" transform="translate(7.749116, 20.980947) scale(-1, 1) translate(-7.749116, -20.980947) " xlink:href="#path-15"></use>
            </g>
            <g id="ROCKET" transform="translate(86.033628, 354.941964) rotate(9.000000) translate(-86.033628, -354.941964) translate(71.033628, 332.941964)">
                <path d="M18.6393243,12.9613546 C18.6393243,14.820624 17.1291471,16.3284978 15.2658519,16.3284978 C13.4025567,16.3284978 11.8923795,14.820624 11.8923795,12.9613546 C11.8923795,11.1015553 13.4025567,9.59368145 15.2658519,9.59368145 C17.1291471,9.59368145 18.6393243,11.1015553 18.6393243,12.9613546 L18.6393243,12.9613546 Z" id="Stroke-1" stroke="#FFFFFF" stroke-width="3"></path>
                <path d="M15.1145156,37.7079753 C9.95580568,37.7079753 6.06619682,29.6836486 6.06619682,19.0421406 C6.06619682,8.40116262 9.95580568,0.376835949 15.1145156,0.376835949 C20.2732255,0.376835949 24.1633654,8.40116262 24.1633654,19.0421406 C24.1633654,29.6836486 20.2732255,37.7079753 15.1145156,37.7079753 L15.1145156,37.7079753 Z M15.1145156,3.26697157 C12.2099203,3.26697157 8.96176503,10.0134481 8.96176503,19.0421406 C8.96176503,28.0713631 12.2099203,34.8178396 15.1145156,34.8178396 C18.0249519,34.8178396 21.2677972,28.3395474 21.2677972,19.0421406 C21.2677972,9.74526384 18.0249519,3.26697157 15.1145156,3.26697157 L15.1145156,3.26697157 Z" id="Fill-2" fill="#E2E2E2"></path>
                <path d="M3.19877185,36.1555808 C3.05009056,36.1555808 2.89822323,36.1402105 2.74263888,36.10947 C1.5510645,35.8714963 0.678623908,34.7590087 0.286211492,32.9803006 C-0.0472594115,31.4692468 -0.0175231526,29.5755269 0.370110222,27.6494765 C1.04236208,24.3098938 2.89238218,20.715907 5.37058076,20.715907 C5.5251031,20.715907 5.67856344,20.7312773 5.83149277,20.7614877 C6.72942159,20.9411606 7.57106392,21.6858223 8.14242489,22.80467 C8.91609863,24.3210239 9.31966214,26.858704 8.13392882,29.4334846 C7.9135619,29.9131422 7.70434608,30.3768995 7.50521934,30.8183965 C6.05929375,34.0318372 5.10348543,36.1555808 3.19877185,36.1555808 L3.19877185,36.1555808 Z M5.44598342,22.6504376 C4.51831834,22.6504376 2.93273853,24.6983899 2.2626107,28.0294925 C1.93073281,29.6751685 1.89781052,31.3282646 2.1712779,32.5653041 C2.42138108,33.6963419 2.83981272,34.1638093 3.12230718,34.2199902 L3.19877185,34.2284703 C3.85456256,34.2284703 4.8586923,31.9971351 5.74440801,30.028684 C5.94618977,29.581887 6.1564676,29.1144196 6.38108256,28.6278719 C7.27794937,26.6790312 6.99067586,24.7932614 6.42250092,23.6786538 C6.09540207,23.0368137 5.69821061,22.7002584 5.45129346,22.6504376 L5.44598342,22.6504376 L5.44598342,22.6504376 Z" id="Fill-3" fill="#E2E2E2"></path>
                <path d="M26.5629753,36.2006315 C24.5101114,36.2006315 23.5006716,33.5670199 22.2225435,30.2337973 L21.8359721,29.2331415 C20.7983891,26.5640193 21.3400138,24.0438296 22.1944002,22.5751764 C22.8199237,21.4976694 23.664752,20.8298588 24.5695839,20.6947067 C24.6842809,20.6772164 24.8005709,20.6687363 24.9163299,20.6687363 C27.338773,20.6687363 29.1473748,24.2780933 29.6826274,27.8434595 C29.975211,29.7864702 29.9109594,31.6780701 29.5026169,33.1711036 C29.0231197,34.9296714 28.0965166,35.9965783 26.8948532,36.1762511 C26.7828112,36.1932114 26.6723622,36.2006315 26.5629753,36.2006315 L26.5629753,36.2006315 Z M24.9163299,22.5958467 C24.6136573,22.6361273 24.2132798,22.9419422 23.8633478,23.5419116 C23.2346383,24.6231287 22.8454119,26.5030684 23.6360778,28.5351205 L24.0247732,29.5453164 C24.7899508,31.5407979 25.838154,34.2740511 26.5629753,34.2740511 L26.6081107,34.269811 C26.8937911,34.2279403 27.335587,33.7816733 27.6403836,32.6638856 C27.9749166,31.4422164 28.023238,29.7891203 27.7731348,28.1296641 C27.2585913,24.7010399 25.7627513,22.5958467 24.9163299,22.5958467 L24.9163299,22.5958467 Z" id="Fill-4" fill="#E2E2E2"></path>
                <polygon id="Fill-5" fill="#E2E2E2" points="8.33411756 24.8271819 22.5703515 24.8271819 22.5703515 26.7537623 8.33411756 26.7537623"></polygon>
                <path d="M14.4024384,38.9900655 C14.4024384,39.3525912 14.696615,39.6462159 15.0598221,39.6462159 C15.4224983,39.6462159 15.7172058,39.3525912 15.7172058,38.9900655 C15.7172058,38.6280698 15.4230293,38.3344452 15.0598221,38.3344452 C14.696615,38.3344452 14.4024384,38.6280698 14.4024384,38.9900655" id="Fill-6" fill="#E2E2E2"></path>
                <path d="M15.388514,40.794214 C15.388514,41.1567397 15.6826905,41.4503643 16.0453667,41.4503643 C16.4085739,41.4503643 16.7027504,41.1567397 16.7027504,40.794214 C16.7027504,40.4322183 16.4085739,40.1385936 16.0453667,40.1385936 C15.6826905,40.1385936 15.388514,40.4322183 15.388514,40.794214" id="Fill-7" fill="#E2E2E2"></path>
                <path d="M14.238358,42.5983625 C14.238358,42.9608882 14.5325345,43.2545128 14.8952107,43.2545128 C15.2584178,43.2545128 15.5525944,42.9608882 15.5525944,42.5983625 C15.5525944,42.2363668 15.2584178,41.9422121 14.8952107,41.9422121 C14.5325345,41.9422121 14.238358,42.2363668 14.238358,42.5983625" id="Fill-8" fill="#E2E2E2"></path>
                <path d="M16.3740586,42.5983625 C16.3740586,42.9608882 16.6682351,43.2545128 17.0314423,43.2545128 C17.3946494,43.2545128 17.688826,42.9608882 17.688826,42.5983625 C17.688826,42.2363668 17.3941184,41.9422121 17.0314423,41.9422121 C16.6682351,41.9422121 16.3740586,42.2363668 16.3740586,42.5983625" id="Fill-9" fill="#E2E2E2"></path>
                <path d="M12.2662068,42.5983625 C12.2662068,42.9608882 12.5603834,43.2545128 12.9235905,43.2545128 C13.2867977,43.2545128 13.5809742,42.9608882 13.5809742,42.5983625 C13.5809742,42.2363668 13.2862667,41.9422121 12.9235905,41.9422121 C12.5603834,41.9422121 12.2662068,42.2363668 12.2662068,42.5983625" id="Fill-10" fill="#E2E2E2"></path>
                <path d="M14.5665188,40.794214 C14.5665188,40.4322183 14.2723423,40.1380636 13.9096661,40.1385936 C13.5464589,40.1385936 13.2522824,40.4316883 13.2522824,40.794214 C13.2522824,41.1567397 13.5464589,41.4503643 13.9096661,41.4503643 C14.2723423,41.4503643 14.5665188,41.1567397 14.5665188,40.794214" id="Fill-11" fill="#E2E2E2"></path>
            </g>
            <g id="Group-8" transform="translate(413.617106, 514.403364) rotate(15.000000) translate(-413.617106, -514.403364) translate(390.117106, 498.403364)" fill="#E2E2E2">
                <path d="M35.0186297,10.3157895 L1.14377669,10.3157895 C0.514699511,10.3157895 4.54747351e-13,10.8325359 4.54747351e-13,11.4641148 L4.54747351e-13,30.8516746 C4.54747351e-13,31.4832536 0.514699511,32 1.14377669,32 L35.0186297,32 C35.6477069,32 36.1624064,31.4832536 36.1624064,30.8516746 L36.1624064,11.4641148 C36.1624064,10.8325359 35.6477069,10.3157895 35.0186297,10.3157895 L35.0186297,10.3157895 Z M33.874853,29.7033493 L2.28755338,29.7033493 L2.28755338,12.6124402 L33.874853,12.6124402 L33.874853,29.7033493 Z M7.70142972,22.277512 L10.5418085,22.277512 C11.1708857,22.277512 11.6855852,21.7607656 11.6855852,21.1291866 C11.6855852,20.4976077 11.1708857,19.9808612 10.5418085,19.9808612 L7.70142972,19.9808612 C7.07235254,19.9808612 6.55765303,20.4976077 6.55765303,21.1291866 C6.55765303,21.7607656 7.06282107,22.277512 7.70142972,22.277512 Z M39.9559324,5.13875598 L6.08107941,5.13875598 C5.45200223,5.13875598 4.93730272,5.65550239 4.93730272,6.28708134 C4.93730272,6.91866029 5.45200223,7.4354067 6.08107941,7.4354067 L38.8121557,7.4354067 L38.8121557,25.6746411 C38.8121557,26.3062201 39.3268552,26.8229665 39.9559324,26.8229665 C40.5850096,26.8229665 41.0997091,26.3062201 41.0997091,25.6746411 L41.0997091,6.28708134 C41.0997091,5.65550239 40.5850096,5.13875598 39.9559324,5.13875598 Z M44.9122981,0 L11.0374451,0 C10.4083679,0 9.89366838,0.516746411 9.89366838,1.14832536 C9.89366838,1.77990431 10.4083679,2.29665072 11.0374451,2.29665072 L43.7685214,2.29665072 L43.7685214,20.5358852 C43.7685214,21.1674641 44.2832209,21.6842105 44.9122981,21.6842105 C45.5413753,21.6842105 46.0560748,21.1674641 46.0560748,20.5358852 L46.0560748,1.14832536 C46.0560748,0.516746411 45.5413753,0 44.9122981,0 Z M25.6205979,22.277512 L28.4609767,22.277512 C29.0900538,22.277512 29.6047534,21.7607656 29.6047534,21.1291866 C29.6047534,20.4976077 29.0900538,19.9808612 28.4609767,19.9808612 L25.6205979,19.9808612 C24.9915207,19.9808612 24.4768212,20.4976077 24.4768212,21.1291866 C24.4768212,21.7607656 24.9915207,22.277512 25.6205979,22.277512 Z M17.1852448,22.2966507 L18.9771616,22.2966507 C19.4251408,22.2966507 19.7968682,22.6602871 19.7968682,23.1196172 C19.7968682,23.5789474 19.4346723,23.9425837 18.9771616,23.9425837 L15.7650554,23.9425837 C15.1359782,23.9425837 14.6212787,24.4593301 14.6212787,25.0909091 C14.6212787,25.722488 15.1359782,26.2392344 15.7650554,26.2392344 L16.9374265,26.2392344 L16.9374265,26.9952153 C16.9374265,27.6267943 17.452126,28.1435407 18.0812032,28.1435407 C18.7102804,28.1435407 19.2249799,27.6267943 19.2249799,26.9952153 L19.2249799,26.2296651 C20.8167358,26.1052632 22.0844216,24.7559809 22.0844216,23.1196172 C22.0844216,21.3971292 20.6928266,20 18.9771616,20 L17.1852448,20 C16.7372656,20 16.3655382,19.6363636 16.3655382,19.1770335 C16.3655382,18.7272727 16.7277341,18.354067 17.1852448,18.354067 L20.3401622,18.354067 C20.9692393,18.354067 21.4839389,17.8373206 21.4839389,17.2057416 C21.4839389,16.5741627 20.9692393,16.0574163 20.3401622,16.0574163 L19.2249799,16.0574163 L19.2249799,15.3301435 C19.2249799,14.6985646 18.7102804,14.1818182 18.0812032,14.1818182 C17.452126,14.1818182 16.9374265,14.6985646 16.9374265,15.3301435 L16.9374265,16.076555 C15.3456706,16.2009569 14.0779848,17.5502392 14.0779848,19.1866029 C14.0779848,20.8995215 15.4695797,22.2966507 17.1852448,22.2966507 Z" id="bill"></path>
            </g>
            <path d="M151.00342,14.703721 L146.795115,14.703721 C145.643369,14.703721 144.706784,15.6388954 144.706784,16.7889071 L144.706784,20.0114674 C144.706784,21.1614791 145.643369,22.0966534 146.795115,22.0966534 L151.00342,22.0966534 C152.155166,22.0966534 153.091751,21.1614791 153.091751,20.0114674 L153.091751,16.7889071 C153.091751,15.6388954 152.155166,14.703721 151.00342,14.703721 L151.00342,14.703721 Z M159.970588,8.84624386 C159.970588,8.7135502 159.938947,8.58717529 159.869336,8.47343787 L155.26235,0.385443482 C155.129456,0.151649895 154.876325,0 154.604209,0 L134.360051,0 C134.087935,0 133.834804,0.145331149 133.70191,0.385443482 L129.101252,8.47343787 C129.03797,8.58717529 129,8.7135502 129,8.84624386 C129,10.6597238 130.094792,12.2141353 131.657876,12.9028785 L131.657876,26.2417505 C131.657876,26.6587877 131.999603,27 132.41727,27 L136.612917,27 L136.631902,27 L142.5172,27 L142.536185,27 L156.54699,27 C156.964657,27 157.306384,26.6587877 157.306384,26.2417505 L157.306384,12.9976597 C157.306384,12.966066 157.306384,12.940791 157.300055,12.915516 C158.869468,12.2267728 159.970588,10.6660426 159.970588,8.84624386 Z M134.80303,1.52281769 L154.16123,1.52281769 L157.76202,7.84788205 L131.208569,7.84788205 L134.80303,1.52281769 Z M151.041389,9.35806225 C150.800915,10.7229113 149.60487,11.7591856 148.168351,11.7591856 C146.731832,11.7591856 145.535788,10.7229113 145.295314,9.35806225 L151.041389,9.35806225 Z M143.681603,9.35806225 C143.441128,10.7229113 142.245084,11.7591856 140.808565,11.7591856 C139.372046,11.7591856 138.176002,10.7229113 137.929199,9.35806225 L143.681603,9.35806225 Z M130.569413,9.35806225 L136.321817,9.35806225 C136.081342,10.7229113 134.878969,11.7591856 133.442451,11.7591856 C132.005932,11.7655043 130.809887,10.7229113 130.569413,9.35806225 Z M141.757807,25.4835011 L137.391295,25.4835011 L137.391295,17.3007255 C137.391295,16.7067634 137.872245,16.22022 138.473431,16.22022 L140.682,16.22022 C141.276858,16.22022 141.764135,16.7004447 141.764135,17.3007255 L141.764135,25.4835011 L141.757807,25.4835011 Z M151.572964,20.0114674 C151.572964,20.3274046 151.313505,20.5801545 151.00342,20.5801545 L146.795115,20.5801545 C146.478701,20.5801545 146.22557,20.3210859 146.22557,20.0114674 L146.22557,16.7889071 C146.22557,16.4729698 146.48503,16.22022 146.795115,16.22022 L151.00342,16.22022 C151.319833,16.22022 151.572964,16.4792886 151.572964,16.7889071 L151.572964,20.0114674 Z M155.787597,25.4835011 L143.276593,25.4835011 L143.276593,17.3007255 C143.276593,15.872689 142.11219,14.703721 140.675671,14.703721 L138.467103,14.703721 C137.036912,14.703721 135.866181,15.8663702 135.866181,17.3007255 L135.866181,25.4898198 L133.176663,25.4898198 L133.176663,13.2756845 C133.265259,13.2820033 133.353855,13.2820033 133.442451,13.2820033 C134.973894,13.2820033 136.328145,12.5047976 137.125508,11.3231921 C137.922871,12.5047976 139.277122,13.2820033 140.808565,13.2820033 C142.340008,13.2820033 143.687931,12.5047976 144.491622,11.3231921 C145.288985,12.5047976 146.643237,13.2820033 148.168351,13.2820033 C149.699794,13.2820033 151.047717,12.5047976 151.84508,11.3231921 C152.642443,12.5047976 153.996695,13.2820033 155.528138,13.2820033 C155.616734,13.2820033 155.699001,13.2756845 155.787597,13.2756845 L155.787597,25.4835011 Z M155.528138,11.7655043 C154.091619,11.7655043 152.895574,10.72923 152.6551,9.364381 L158.407504,9.364381 C158.160701,10.7229113 156.964657,11.7655043 155.528138,11.7655043 Z" id="shop" fill="#E2E2E2"></path>
            <g id="Immune_System" transform="translate(139.776745, 373.866303)">
                <circle id="Oval-48" fill="#C063CF" cx="3.125" cy="34.375" r="3.125"></circle>
                <circle id="Oval-48-Copy" fill="#C063CF" cx="5" cy="20" r="2.5"></circle>
                <path d="M19.6875,5.84904179 L20,11.1282888" id="Line" stroke="#C063CF" stroke-width="2" stroke-linecap="square"></path>
                <path d="M31.1942905,7.64565215 L28.4198019,12.3286726" id="Line" stroke="#C063CF" stroke-width="2" stroke-linecap="square"></path>
                <circle id="Oval-48-Copy-2" fill="#C063CF" cx="19.375" cy="3.125" r="3.125"></circle>
                <circle id="Oval-48-Copy-3" fill="#C063CF" cx="31.25" cy="7.5" r="2.5"></circle>
                <circle id="Oval-48-Copy-5" fill="#C063CF" cx="43.125" cy="23.125" r="1.875"></circle>
                <circle id="Oval-48-Copy-10" fill="#C063CF" cx="27.5" cy="25" r="2.5"></circle>
                <circle id="Oval-48-Copy-12" fill="#C063CF" cx="19.6875" cy="28.4375" r="1.5625"></circle>
                <circle id="Oval-48-Copy-11" fill="#C063CF" cx="20.625" cy="18.125" r="3.125"></circle>
                <circle id="Oval-48-Copy-7" fill="#C063CF" cx="10.625" cy="11.875" r="1.875"></circle>
                <circle id="Oval-48-Copy-8" fill="#C063CF" cx="25.625" cy="38.125" r="1.875"></circle>
                <circle id="Oval-48-Copy-9" fill="#C063CF" cx="17.5" cy="42.5" r="2.5"></circle>
                <circle id="Oval-48-Copy-6" fill="#C063CF" cx="36.875" cy="36.875" r="3.125"></circle>
                <use id="Oval-37-Copy" stroke="#C063CF" mask="url(#mask-18)" stroke-width="3.63636364" xlink:href="#path-17"></use>
                <path d="M40.0683488,6.25 L30.9642706,14.7062135" id="Path-58" stroke="#C063CF" stroke-width="2" stroke-linecap="square"></path>
                <circle id="Oval-48-Copy-4" fill="#C063CF" cx="40" cy="6.25" r="2.5"></circle>
                <path d="M42.7544969,23.2167932 L34.375,22.5" id="Line" stroke="#C063CF" stroke-width="2" stroke-linecap="square"></path>
                <path d="M10.7611071,21.1283677 L5.12189556,20.1943091" id="Line" stroke="#C063CF" stroke-width="2" stroke-linecap="square"></path>
                <path d="M10.625,11.875 L13.5630864,14.5426035" id="Line" stroke="#C063CF" stroke-width="2" stroke-linecap="square"></path>
                <path d="M3.125,34.375 L12.3938853,28.4182038" id="Line" stroke="#C063CF" stroke-width="2" stroke-linecap="square"></path>
                <path d="M17.4737556,42.3991388 L19.1044653,34.1733558" id="Line" stroke="#C063CF" stroke-width="2" stroke-linecap="square"></path>
                <path d="M36.875,36.875 L30.625,30.625" id="Line" stroke="#C063CF" stroke-width="2" stroke-linecap="square"></path>
                <path d="M25.625,38.125 L24.6229152,33.7289146" id="Line" stroke="#C063CF" stroke-width="2" stroke-linecap="square"></path>
            </g>
            <g id="Group-30" transform="translate(162.159712, 133.054676) rotate(6.000000) translate(-162.159712, -133.054676) translate(146.159712, 111.554676)" fill="#88D3B1">
                <path d="M15.9986667,5.375 C10.1133333,5.3776875 5.33466667,10.1936875 5.332,16.125 C5.332,16.86675 5.928,17.46875 6.66533333,17.46875 C7.40133333,17.46875 7.99866667,16.86675 7.99866667,16.125 C7.99866667,13.89975 8.89333333,11.8921875 10.3453333,10.4275 C11.7986667,8.96415625 13.7906667,8.0625 15.9986667,8.0625 C16.7346667,8.0625 17.332,7.4605 17.332,6.71875 C17.332,5.977 16.7346667,5.375 15.9986667,5.375" id="Fill-252"></path>
                <path d="M12,40.3125 L20,40.3125 C20.736,40.3125 21.3333333,39.7105 21.3333333,38.96875 C21.3333333,38.227 20.736,37.625 20,37.625 L12,37.625 C11.264,37.625 10.6666667,38.227 10.6666667,38.96875 C10.6666667,39.7105 11.264,40.3125 12,40.3125" id="Fill-253"></path>
                <path d="M10.6653333,34.9375 L21.332,34.9375 C22.068,34.9375 22.6653333,34.3355 22.6653333,33.59375 C22.6653333,32.852 22.068,32.25 21.332,32.25 L10.6653333,32.25 C9.928,32.25 9.332,32.852 9.332,33.59375 C9.332,34.3355 9.928,34.9375 10.6653333,34.9375" id="Fill-254"></path>
                <path d="M24.4613333,26.4812813 C22.6053333,28.0024063 21.3333333,30.2572188 21.3333333,32.814375 L21.3333333,37.625 L18.8093333,37.625 L18.5,38.5306875 C18.1533333,39.5505938 17.1493333,40.317875 16,40.3125 C14.8533333,40.317875 13.84,39.5519375 13.468,38.511875 L13.1493333,37.625 L10.6666667,37.625 L10.6666667,32.814375 C10.6653333,30.2437813 9.36,27.998375 7.51066667,26.4785938 L7.51733333,26.4853125 C4.55333333,24.0087813 2.668,20.3054063 2.66666667,16.125 C2.66666667,12.4229688 4.16133333,9.0703125 6.58,6.63140625 C9,4.19384375 12.3266667,2.6875 16,2.6875 C19.6746667,2.6875 23,4.19384375 25.4213333,6.63140625 C27.8386667,9.0703125 29.3333333,12.4229688 29.3333333,16.125 C29.332,20.3054063 27.448,24.0060938 24.4613333,26.4812813 L24.4613333,26.4812813 Z M16,8.52651283e-14 C7.18,0.0026875 0.004,7.23609375 -1.05160325e-12,16.125 C-1.05160325e-12,21.1345 2.27333333,25.601125 5.816,28.5546875 L5.824,28.5600625 C7.17333333,29.675375 8.00266667,31.1924688 8,32.814375 L8,37.625 C7.99866667,38.356 8.292,39.0426563 8.77733333,39.5290938 C9.26,40.0182188 9.94133333,40.3138438 10.6666667,40.3125 L11.384,40.3125 C12.3146667,41.9115625 14.028,42.994625 16,43 C17.9653333,42.9959688 19.6813333,41.9169375 20.5986667,40.3125 L21.3333333,40.3125 C22.0586667,40.3138438 22.7413333,40.0182188 23.2226667,39.5290938 C23.708,39.0426563 24.0013333,38.356 24,37.625 L24,32.814375 C24,31.1790313 24.808,29.67 26.1506667,28.5600625 C29.7253333,25.6051563 32.0013333,21.1345 32,16.125 C31.9973333,7.23609375 24.82,0.0026875 16,8.52651283e-14 L16,8.52651283e-14 Z" id="Fill-255"></path>
            </g>
            <g id="Group-5" transform="translate(0.000000, 129.000000)" fill="#E2E2E2">
                <path d="M44.9495596,27.4006116 L44.1107643,27.4006116 L44.1107643,2.29969419 C44.1107643,1.03163303 43.0704608,0 41.791742,0 L3.89793107,0 C2.61921232,0 1.57890879,1.03163303 1.57890879,2.29969419 L1.57890879,27.4006116 L0.740113495,27.4006116 C0.3312748,27.4006116 0,27.7291254 0,28.1345566 L0,29.7003058 C0,30.968367 1.04030353,32 2.31902228,32 L43.3706508,32 C44.6493695,32 45.6896731,30.968367 45.6896731,29.7003058 L45.6896731,28.1345566 C45.6896731,27.7291254 45.3583983,27.4006116 44.9495596,27.4006116 L44.9495596,27.4006116 L44.9495596,27.4006116 L44.9495596,27.4006116 L44.9495596,27.4006116 Z M3.05913578,2.29969419 C3.05913578,1.84102752 3.43540948,1.46788991 3.89793107,1.46788991 L41.791742,1.46788991 C42.2542636,1.46788991 42.6305373,1.84102752 42.6305373,2.29969419 L42.6305373,27.4006116 L3.05913578,27.4006116 L3.05913578,2.29969419 L3.05913578,2.29969419 L3.05913578,2.29969419 L3.05913578,2.29969419 L3.05913578,2.29969419 Z M44.2094461,29.7003058 C44.2094461,30.1589725 43.8331724,30.5321101 43.3706508,30.5321101 L2.31902228,30.5321101 C1.85650069,30.5321101 1.48022699,30.1589725 1.48022699,29.7003058 L1.48022699,28.8685015 L18.9493725,28.8685015 C18.948287,28.8847462 18.9469055,28.900893 18.9469055,28.9174312 C18.9469055,29.3228624 19.2781803,29.6513761 19.687019,29.6513761 L26.0026541,29.6513761 C26.4114928,29.6513761 26.7427676,29.3228624 26.7427676,28.9174312 C26.7427676,28.900893 26.7413861,28.8847462 26.7403006,28.8685015 L44.2094461,28.8685015 L44.2094461,29.7003058 L44.2094461,29.7003058 L44.2094461,29.7003058 L44.2094461,29.7003058 Z M40.2128332,3.13149847 L5.47683986,3.13149847 C5.06800117,3.13149847 4.73672637,3.46001223 4.73672637,3.86544343 L4.73672637,25.0030581 C4.73672637,25.4084893 5.06800117,25.7370031 5.47683986,25.7370031 L40.2128332,25.7370031 C40.6216719,25.7370031 40.9529467,25.4084893 40.9529467,25.0030581 L40.9529467,3.86544343 C40.9529467,3.46001223 40.6216719,3.13149847 40.2128332,3.13149847 L40.2128332,3.13149847 L40.2128332,3.13149847 L40.2128332,3.13149847 Z M6.21695335,4.59938838 L23.6836318,4.59938838 L23.6836318,24.2691131 L22.0060412,24.2691131 L22.0060412,19.5229358 C22.0060412,18.912685 21.8255522,18.3437309 21.5157901,17.8645138 C21.7073314,17.7963058 21.8659131,17.6518654 21.9476216,17.4600612 C22.05854,17.1996575 22.008903,16.8993272 21.8199274,16.6876575 C20.9348503,15.6965382 20.4271325,13.8765505 20.4271325,11.6941896 C20.4271325,8.69940061 17.9702517,6.26299694 14.9502926,6.26299694 C11.9303335,6.26299694 9.47345273,8.69940061 9.47345273,11.6941896 C9.47345273,13.8765505 8.96573487,15.6965382 8.08065782,16.6876575 C7.89168217,16.8992294 7.84204523,17.1995596 7.95296357,17.4600612 C8.0346721,17.6518654 8.19325375,17.7963058 8.38479512,17.8645138 C8.07503295,18.3437309 7.89454394,18.912685 7.89454394,19.5229358 L7.89454394,24.2691131 L6.21695335,24.2691131 L6.21695335,4.59938838 L6.21695335,4.59938838 L6.21695335,4.59938838 L6.21695335,4.59938838 Z M18.1574511,11.6941896 C18.1574511,13.4479266 16.7187691,14.8746177 14.9502926,14.8746177 C13.300925,14.8746177 11.9384254,13.63337 11.762081,12.050789 C13.4710524,11.6670826 15.6202433,10.9562324 17.3851673,9.64834251 C17.8812407,10.2204281 18.1574511,10.9410642 18.1574511,11.6941896 L18.1574511,11.6941896 L18.1574511,11.6941896 L18.1574511,11.6941896 Z M13.8417013,16.2100061 C14.1973505,16.2959266 14.568394,16.3425076 14.9502926,16.3425076 C15.3321912,16.3425076 15.7032347,16.2959266 16.0588839,16.2100061 C16.5235765,16.7857125 17.2201713,17.2205994 18.1395897,17.508893 C17.9704491,19.1059572 16.6047916,20.3547401 14.9502926,20.3547401 C13.2957935,20.3547401 11.9301361,19.1059572 11.7609955,17.508893 C12.6804138,17.2205994 13.37691,16.7857125 13.8417013,16.2100061 L13.8417013,16.2100061 L13.8417013,16.2100061 L13.8417013,16.2100061 Z M17.513651,15.5829235 C18.1839965,15.1469602 18.734937,14.5455168 19.1076581,13.8373089 C19.2588386,14.7942752 19.5142271,15.6510336 19.8671132,16.3769541 C19.0466728,16.2766483 18.1111693,16.0490275 17.513651,15.5829235 L17.513651,15.5829235 L17.513651,15.5829235 L17.513651,15.5829235 Z M11.0826568,10.6944587 C11.5305735,8.9915107 13.09468,7.73088685 14.9502926,7.73088685 C15.6340588,7.73088685 16.2782536,7.90233639 16.841628,8.20374312 C15.0323958,9.69433639 12.5415686,10.3941284 11.0826568,10.6944587 L11.0826568,10.6944587 L11.0826568,10.6944587 L11.0826568,10.6944587 Z M10.7929271,13.837211 C11.1656482,14.545419 11.7166874,15.1468624 12.3870329,15.5829235 C11.7895146,16.0491254 10.8538137,16.2766483 10.0333733,16.3768563 C10.3862594,15.6510336 10.6417466,14.7942752 10.7929271,13.837211 L10.7929271,13.837211 L10.7929271,13.837211 L10.7929271,13.837211 Z M9.37477093,19.5229358 C9.37477093,18.8642446 9.77512299,18.2972477 10.3467867,18.0463364 C10.75977,20.1938593 12.6663023,21.82263 14.9502926,21.82263 C17.2342828,21.82263 19.1408152,20.1938593 19.5537985,18.0463364 C20.1254622,18.2971498 20.5258143,18.8641468 20.5258143,19.5229358 L20.5258143,24.2691131 L9.37477093,24.2691131 L9.37477093,19.5229358 L9.37477093,19.5229358 L9.37477093,19.5229358 L9.37477093,19.5229358 Z M39.4727197,24.2691131 L25.1638588,24.2691131 L25.1638588,4.59938838 L39.4727197,4.59938838 L39.4727197,24.2691131 L39.4727197,24.2691131 L39.4727197,24.2691131 L39.4727197,24.2691131 Z M27.5815629,9.29663609 L28.4203582,9.29663609 L28.4203582,9.34556575 C28.4203582,9.75099694 28.751633,10.0795107 29.1604717,10.0795107 C29.5693104,10.0795107 29.9005852,9.75099694 29.9005852,9.34556575 L29.9005852,9.29663609 L37.0550156,9.29663609 C37.4638543,9.29663609 37.7951291,8.96812232 37.7951291,8.56269113 C37.7951291,8.15725994 37.4638543,7.82874618 37.0550156,7.82874618 L29.9005852,7.82874618 L29.9005852,7.77981651 C29.9005852,7.37438532 29.5693104,7.04587156 29.1604717,7.04587156 C28.751633,7.04587156 28.4203582,7.37438532 28.4203582,7.77981651 L28.4203582,7.82874618 L27.5815629,7.82874618 C27.1727242,7.82874618 26.8414494,8.15725994 26.8414494,8.56269113 C26.8414494,8.96812232 27.1727242,9.29663609 27.5815629,9.29663609 L27.5815629,9.29663609 L27.5815629,9.29663609 L27.5815629,9.29663609 Z M27.5815629,13.2110092 L34.7359933,13.2110092 L34.7359933,13.2599388 C34.7359933,13.66537 35.0672681,13.9938838 35.4761068,13.9938838 C35.8849455,13.9938838 36.2162203,13.66537 36.2162203,13.2599388 L36.2162203,13.2110092 L37.0550156,13.2110092 C37.4638543,13.2110092 37.7951291,12.8824954 37.7951291,12.4770642 C37.7951291,12.071633 37.4638543,11.7431193 37.0550156,11.7431193 L36.2162203,11.7431193 L36.2162203,11.6941896 C36.2162203,11.2887584 35.8849455,10.9602446 35.4761068,10.9602446 C35.0672681,10.9602446 34.7359933,11.2887584 34.7359933,11.6941896 L34.7359933,11.7431193 L27.5815629,11.7431193 C27.1727242,11.7431193 26.8414494,12.071633 26.8414494,12.4770642 C26.8414494,12.8824954 27.1727242,13.2110092 27.5815629,13.2110092 L27.5815629,13.2110092 L27.5815629,13.2110092 L27.5815629,13.2110092 Z M27.5815629,17.1253823 L32.3676302,17.1253823 L32.3676302,17.1743119 C32.3676302,17.5797431 32.698905,17.9082569 33.1077437,17.9082569 C33.5165824,17.9082569 33.8478572,17.5797431 33.8478572,17.1743119 L33.8478572,17.1253823 L37.0550156,17.1253823 C37.4638543,17.1253823 37.7951291,16.7968685 37.7951291,16.3914373 C37.7951291,15.9860061 37.4638543,15.6574924 37.0550156,15.6574924 L33.8478572,15.6574924 L33.8478572,15.6085627 C33.8478572,15.2031315 33.5165824,14.8746177 33.1077437,14.8746177 C32.698905,14.8746177 32.3676302,15.2031315 32.3676302,15.6085627 L32.3676302,15.6574924 L27.5815629,15.6574924 C27.1727242,15.6574924 26.8414494,15.9860061 26.8414494,16.3914373 C26.8414494,16.7968685 27.1727242,17.1253823 27.5815629,17.1253823 L27.5815629,17.1253823 L27.5815629,17.1253823 L27.5815629,17.1253823 Z M37.0550156,19.5718654 L31.479494,19.5718654 L31.479494,19.5229358 C31.479494,19.1175046 31.1482192,18.7889908 30.7393805,18.7889908 C30.3305418,18.7889908 29.999267,19.1175046 29.999267,19.5229358 L29.999267,19.5718654 L27.5815629,19.5718654 C27.1727242,19.5718654 26.8414494,19.9003792 26.8414494,20.3058104 C26.8414494,20.7112416 27.1727242,21.0397554 27.5815629,21.0397554 L29.999267,21.0397554 L29.999267,21.088685 C29.999267,21.4941162 30.3305418,21.82263 30.7393805,21.82263 C31.1482192,21.82263 31.479494,21.4941162 31.479494,21.088685 L31.479494,21.0397554 L37.0550156,21.0397554 C37.4638543,21.0397554 37.7951291,20.7112416 37.7951291,20.3058104 C37.7951291,19.9003792 37.4638543,19.5718654 37.0550156,19.5718654 L37.0550156,19.5718654 L37.0550156,19.5718654 L37.0550156,19.5718654 Z" id="laptop"></path>
            </g>
            <g id="Group-6" transform="translate(351.066396, 587.367232) rotate(7.000000) translate(-351.066396, -587.367232) translate(329.566396, 571.367232)" fill="#F0847A">
                <path d="M25.6629074,8.75213675 C20.8279055,8.75213675 16.8943648,12.6578689 16.8943648,17.4586895 C16.8943648,22.25951 20.8279055,26.1652422 25.6629074,26.1652422 C30.4979094,26.1652422 34.43145,22.25951 34.43145,17.4586895 C34.43145,12.6578689 30.4979094,8.75213675 25.6629074,8.75213675 L25.6629074,8.75213675 L25.6629074,8.75213675 L25.6629074,8.75213675 L25.6629074,8.75213675 Z M38.8845842,5.83475783 L36.1198765,5.83475783 C35.8223888,5.83475783 35.5548335,5.67065527 35.4217903,5.40635897 L33.7017787,1.9905641 C33.0833899,0.762803419 31.8404605,8.52651283e-14 30.4578771,8.52651283e-14 L20.8679378,8.52651283e-14 C19.4853544,8.52651283e-14 18.2424249,0.762803419 17.6240361,1.99065527 L15.9040245,5.40635897 C15.7709814,5.6705641 15.5034261,5.83475783 15.2059383,5.83475783 L10.1917092,5.83475783 L10.1917092,5.05982906 C10.1917092,4.28061538 9.55330422,3.64672365 8.76854261,3.64672365 L4.361317,3.64672365 C3.57655539,3.64672365 2.9381504,4.28061538 2.9381504,5.05982906 L2.9381504,5.90067236 C1.26661828,6.22112821 -6.82121026e-13,7.6840114 -6.82121026e-13,9.43589744 L-6.82121026e-13,28.3988604 C-6.82121026e-13,30.3845014 1.62700079,32 3.6267794,32 L38.8845842,32 C40.8843629,32 42.5113636,30.3845014 42.5113636,28.3988604 L42.5113636,9.43589744 C42.5113636,7.45025641 40.8843629,5.83475783 38.8845842,5.83475783 L38.8845842,5.83475783 L38.8845842,5.83475783 L38.8845842,5.83475783 Z M20.8679378,1.36752137 L30.4578771,1.36752137 C31.3153579,1.36752137 32.0863469,1.84059259 32.4699592,2.60221083 L32.6286193,2.91737892 L18.6971955,2.91737892 L18.8558557,2.60221083 C19.2394679,1.84059259 20.010457,1.36752137 20.8679378,1.36752137 L20.8679378,1.36752137 L20.8679378,1.36752137 L20.8679378,1.36752137 Z M4.361317,5.01424501 L8.76854261,5.01424501 C8.79388415,5.01424501 8.81445121,5.03466667 8.81445121,5.05982906 L8.81445121,5.83475783 L4.3154084,5.83475783 L4.3154084,5.05982906 C4.3154084,5.03466667 4.33597546,5.01424501 4.361317,5.01424501 L4.361317,5.01424501 L4.361317,5.01424501 L4.361317,5.01424501 Z M1.377258,28.3988604 L1.377258,9.43589744 C1.377258,8.20430769 2.38642085,7.2022792 3.6267794,7.2022792 L10.2835264,7.2022792 L10.2835264,30.6324786 L3.6267794,30.6324786 C2.38642085,30.6324786 1.377258,29.6304501 1.377258,28.3988604 L1.377258,28.3988604 L1.377258,28.3988604 L1.377258,28.3988604 Z M41.1341056,28.3988604 C41.1341056,29.6304501 40.1249428,30.6324786 38.8845842,30.6324786 L11.6607844,30.6324786 L11.6607844,7.2022792 L15.2059383,7.2022792 C16.0284368,7.2022792 16.7680243,6.74844444 17.1359359,6.01791453 L18.0085665,4.28490028 L33.3172483,4.28490028 L34.1899708,6.01791453 C34.5577905,6.74844444 35.2972862,7.2022792 36.1198765,7.2022792 L38.8845842,7.2022792 C40.1249428,7.2022792 41.1341056,8.20430769 41.1341056,9.43589744 L41.1341056,28.3988604 L41.1341056,28.3988604 L41.1341056,28.3988604 L41.1341056,28.3988604 Z M37.0482402,8.75213675 C36.0490855,8.75213675 35.1836165,9.3314188 34.7745709,10.1695271 C32.626783,7.52784046 29.3404617,5.83475783 25.6629074,5.83475783 C19.207791,5.83475783 13.9562144,11.049208 13.9562144,17.4586895 C13.9562144,23.8681709 19.207791,29.0826211 25.6629074,29.0826211 C32.1180239,29.0826211 37.3696004,23.8681709 37.3696004,17.4586895 C37.3696004,16.1622792 37.1545645,14.914735 36.7583733,13.7493333 C36.8535878,13.7601823 36.9501795,13.7663818 37.0482402,13.7663818 C38.4405563,13.7663818 39.5732132,12.6417322 39.5732132,11.2592593 C39.5732132,9.87678632 38.4405563,8.75213675 37.0482402,8.75213675 L37.0482402,8.75213675 L37.0482402,8.75213675 L37.0482402,8.75213675 Z M25.6629074,24.7977208 C21.5873255,24.7977208 18.2716228,21.5054587 18.2716228,17.4586895 C18.2716228,13.4119202 21.5873255,10.1196581 25.6629074,10.1196581 C29.7384893,10.1196581 33.054192,13.4119202 33.054192,17.4586895 C33.054192,21.5054587 29.7384893,24.7977208 25.6629074,24.7977208 L25.6629074,24.7977208 L25.6629074,24.7977208 L25.6629074,24.7977208 Z M25.6629074,13.1282051 C23.2581231,13.1282051 21.3015904,15.070906 21.3015904,17.4586895 C21.3015904,19.8464729 23.2581231,21.7891738 25.6629074,21.7891738 C28.0676917,21.7891738 30.0242244,19.8464729 30.0242244,17.4586895 C30.0242244,15.070906 28.0676917,13.1282051 25.6629074,13.1282051 L25.6629074,13.1282051 L25.6629074,13.1282051 L25.6629074,13.1282051 Z M25.6629074,20.4216524 C24.0175432,20.4216524 22.6788484,19.0924217 22.6788484,17.4586895 C22.6788484,15.8249573 24.0175432,14.4957265 25.6629074,14.4957265 C27.3082716,14.4957265 28.6469664,15.8249573 28.6469664,17.4586895 C28.6469664,19.0924217 27.3082716,20.4216524 25.6629074,20.4216524 L25.6629074,20.4216524 L25.6629074,20.4216524 L25.6629074,20.4216524 Z M25.6629074,16.1367521 C24.9288289,16.1367521 24.331558,16.7298006 24.331558,17.4586895 C24.331558,18.1875783 24.9288289,18.7806268 25.6629074,18.7806268 C26.3969859,18.7806268 26.9942568,18.1875783 26.9942568,17.4586895 C26.9942568,16.7298006 26.3969859,16.1367521 25.6629074,16.1367521 L25.6629074,16.1367521 L25.6629074,16.1367521 L25.6629074,16.1367521 Z M25.6629074,27.7150997 C19.967211,27.7150997 15.3334724,23.1141197 15.3334724,17.4586895 C15.3334724,11.8032593 19.967211,7.2022792 25.6629074,7.2022792 C31.3586038,7.2022792 35.9923424,11.8032593 35.9923424,17.4586895 C35.9923424,23.1141197 31.3586038,27.7150997 25.6629074,27.7150997 L25.6629074,27.7150997 L25.6629074,27.7150997 L25.6629074,27.7150997 Z M37.0482402,12.3988604 C36.4153443,12.3988604 35.9005252,11.8876809 35.9005252,11.2592593 C35.9005252,10.6308376 36.4153443,10.1196581 37.0482402,10.1196581 C37.6811362,10.1196581 38.1959552,10.6308376 38.1959552,11.2592593 C38.1959552,11.8876809 37.6811362,12.3988604 37.0482402,12.3988604 L37.0482402,12.3988604 L37.0482402,12.3988604 L37.0482402,12.3988604 Z M8.03400501,8.75213675 C7.65369816,8.75213675 7.34537601,9.0582792 7.34537601,9.43589744 L7.34537601,28.3988604 C7.34537601,28.7764786 7.65369816,29.0826211 8.03400501,29.0826211 C8.41431185,29.0826211 8.72263401,28.7764786 8.72263401,28.3988604 L8.72263401,9.43589744 C8.72263401,9.0582792 8.41431185,8.75213675 8.03400501,8.75213675 L8.03400501,8.75213675 L8.03400501,8.75213675 L8.03400501,8.75213675 Z" id="photo-camera"></path>
            </g>
            <g id="Group-4" transform="translate(283.777129, 301.471114) rotate(-7.000000) translate(-283.777129, -301.471114) translate(262.277129, 281.471114)" fill="#E2E2E2">
                <path d="M33.59375,24 L41.65625,24 C42.398,24 43,23.4026667 43,22.6666667 C43,21.9306667 42.398,21.3333333 41.65625,21.3333333 L33.59375,21.3333333 C32.852,21.3333333 32.25,21.9306667 32.25,22.6666667 C32.25,23.4026667 32.852,24 33.59375,24" id="Fill-85"></path>
                <path d="M1.34375,24 L9.40625,24 C10.148,24 10.75,23.4026667 10.75,22.6666667 C10.75,21.9306667 10.148,21.3333333 9.40625,21.3333333 L1.34375,21.3333333 C0.602,21.3333333 -1.59161573e-12,21.9306667 -1.59161573e-12,22.6666667 C-1.59161573e-12,23.4026667 0.602,24 1.34375,24" id="Fill-86"></path>
                <path d="M14.78125,24 L28.21875,24 C28.9605,24 29.5625,23.4026667 29.5625,22.6666667 C29.5625,21.9306667 28.9605,21.3333333 28.21875,21.3333333 L14.78125,21.3333333 C14.0395,21.3333333 13.4375,21.9306667 13.4375,22.6666667 C13.4375,23.4026667 14.0395,24 14.78125,24" id="Fill-87"></path>
                <path d="M8.0625,19.6701608 C8.0625,19.1159463 8.51907565,18.6666667 9.06731944,18.6666667 L15.1201806,18.6666667 C15.675127,18.6666667 16.125,19.1114198 16.125,19.6701608 L16.125,28.3298392 C16.125,28.8840537 15.6684243,29.3333333 15.1201806,29.3333333 L9.06731944,29.3333333 C8.51237299,29.3333333 8.0625,28.8885802 8.0625,28.3298392 L8.0625,19.6701608 Z M10.75,21.3333333 L13.4375,21.3333333 L13.4375,26.6666667 L10.75,26.6666667 L10.75,21.3333333 Z" id="Combined-Shape"></path>
                <path d="M26.875,19.6701608 C26.875,19.1159463 27.3315757,18.6666667 27.8798194,18.6666667 L33.9326806,18.6666667 C34.487627,18.6666667 34.9375,19.1114198 34.9375,19.6701608 L34.9375,28.3298392 C34.9375,28.8840537 34.4809243,29.3333333 33.9326806,29.3333333 L27.8798194,29.3333333 C27.324873,29.3333333 26.875,28.8885802 26.875,28.3298392 L26.875,19.6701608 Z M29.5625,21.3333333 L32.25,21.3333333 L32.25,26.6666667 L29.5625,26.6666667 L29.5625,21.3333333 Z" id="Combined-Shape"></path>
                <path d="M40.3125,36 C40.3111562,36.736 39.7105,37.332 38.96875,37.3333333 L4.03125,37.3333333 C3.2895,37.332 2.68884375,36.736 2.6875,36 L2.6875,12 C2.68884375,11.264 3.2895,10.668 4.03125,10.6666667 L38.96875,10.6666667 C39.7105,10.668 40.3111562,11.264 40.3125,12 L40.3125,36 L40.3125,36 Z M13.4375,4 C13.4388438,3.264 14.0395,2.668 14.78125,2.66666667 L28.21875,2.66666667 C28.9605,2.668 29.5611563,3.264 29.5625,4 L29.5625,8 L13.4375,8 L13.4375,4 L13.4375,4 Z M38.96875,8 L32.25,8 L32.25,4 C32.25,1.79066667 30.4453437,0.00133333333 28.21875,0 L14.78125,0 C12.5546563,0.00133333333 10.7513438,1.79066667 10.75,4 L10.75,8 L4.03125,8 C1.80465625,8.00133333 0.00134375,9.79066667 0,12 L0,36 C0.00134375,38.2093333 1.80465625,39.9986667 4.03125,40 L38.96875,40 C41.1953437,39.9986667 43,38.2093333 43,36 L43,12 C43,9.79066667 41.1953437,8.00133333 38.96875,8 L38.96875,8 Z" id="Fill-90"></path>
            </g>
            <path d="M218.720816,673.593981 L187.699736,673.593981 C187.639979,673.593981 187.58252,673.019389 187.529657,673.019389 L200.100584,673.019389 L206.319969,673.019389 L218.890895,673.019389 C218.838033,673.019389 218.780574,673.593981 218.720816,673.593981 L218.720816,673.593981 Z M206.319969,670.146428 L204.480125,670.146428 C204.49449,670.146428 204.603088,670.399249 204.603088,670.311911 L204.603088,667.273468 L219.965383,667.273468 C220.689369,667.273468 221.490925,667.264274 221.620783,666.738522 C221.920145,665.531879 222.027019,664.316617 222.027019,663.063431 C222.027019,653.126435 214.371154,645.006874 204.603088,644.27197 L204.603088,643.409507 C204.603088,642.552791 204.023324,641.858109 203.166607,641.858109 C202.30989,641.858109 201.730127,642.552791 201.730127,643.409507 L201.730127,647.269617 L184.98996,665.491657 C184.576254,665.94616 184.392959,666.194384 184.641183,666.756335 C184.889406,667.318286 185.369191,667.273468 185.98343,667.273468 L201.730127,667.273468 L201.730127,670.311911 C201.730127,670.399249 201.409505,670.146428 201.423295,670.146428 L200.100584,670.146428 L185.608796,670.146428 C184.725648,670.146428 184.044181,671.120936 184.15163,671.997189 C184.352163,673.626158 184.810113,675.940041 185.833461,677.8293 C188.211123,682.219183 192.052272,683.936639 192.052272,683.936639 L200.466599,683.936639 L205.953954,683.936639 L214.368281,683.936639 C214.368281,683.936639 218.209429,682.319737 220.587666,677.929279 C221.61044,676.040594 222.068964,673.47619 222.268922,671.847221 C222.376371,670.970393 221.695479,670.146428 220.811757,670.146428 L206.319969,670.146428 Z M217.858928,675.840062 C216.491973,678.364819 214.484348,679.914494 213.520183,680.489086 L205.953954,680.489086 L200.466599,680.489086 L192.900944,680.489086 C191.936204,679.914494 189.929154,678.364819 188.561625,675.840062 C188.469115,675.669982 188.380628,675.317757 188.295014,675.317757 L218.125539,675.317757 C218.039924,675.317757 217.951437,675.669982 217.858928,675.840062 L217.858928,675.840062 Z M201.730127,664.400507 L189.493613,664.400507 L201.730127,651.878995 L201.730127,664.400507 L201.730127,664.400507 Z M204.603088,647.386834 C212.647377,648.113119 218.924222,654.596816 218.924222,662.822102 C218.924222,663.447833 218.848375,663.825915 218.775402,664.400507 L204.603088,664.400507 L204.603088,647.386834 L204.603088,647.386834 Z" id="-Sail-Boat" fill="#E2E2E2" transform="translate(203.210280, 662.897374) rotate(-10.000000) translate(-203.210280, -662.897374) "></path>
            <g id="Group-7" transform="translate(259.776745, 551.866303)" fill="#E2E2E2">
                <path d="M14.5307618,28.6599005 C13.8689813,28.6599005 13.2917553,28.285649 12.9933716,27.7351447 C12.9933716,27.7351447 12.9933716,27.7351447 12.9929958,27.7351447 C13.4593613,27.7793986 13.9050579,27.8064851 14.3210665,27.8114446 L14.914076,27.8122076 C15.2755938,27.8087741 15.6581563,27.7889361 16.0561265,27.7549827 C15.7543606,28.2944235 15.1842748,28.6599005 14.5307618,28.6599005 M8.29664631,17.5296404 L8.17112973,12.8436769 C8.19255023,10.391014 8.68710059,8.34045192 9.6412521,7.0834097 C10.66906,5.7294665 12.2849921,4.90123018 14.5814946,4.90123018 L14.5860042,4.90123018 C16.812984,4.90123018 18.4116293,5.73938549 19.4736349,7.11125919 C20.4623599,8.38852091 20.9989996,10.4066555 21.0260571,12.7883594 L20.9121902,17.5162879 C20.8584511,19.7312764 22.33872,21.8878954 23.9745694,23.848805 C21.3154217,24.6148568 17.4728856,25.5022256 14.9058084,25.5022256 L14.3353468,25.5022256 C11.7310656,25.5022256 7.75474538,24.6118048 5.03396677,23.8476605 C6.72994382,21.8756874 8.35790141,19.8235994 8.29664631,17.5296404 M14.5307618,2.36959674 C15.1207649,2.36959674 15.6284682,2.63855418 15.8498134,3.15548656 C15.4477093,3.11123257 15.027567,2.9937306 14.5867558,2.9937306 L14.5814946,2.9937306 C14.0997214,2.9937306 13.642375,3.11275857 13.2083281,3.16235356 C13.4281701,2.64160618 13.9381282,2.36959674 14.5307618,2.36959674 M27.629958,25.0173393 C25.7855407,23.0167537 22.8836273,19.9620839 22.9407487,17.6093739 L23.0553671,12.8879309 C23.0129019,8.31718043 21.3094089,4.53766076 17.1294061,3.47785399 C16.9591695,2.17579478 15.8592083,1.167872 14.5307618,1.167872 C13.1996848,1.167872 12.0974688,2.17999128 11.9309902,3.48624699 L11.9309902,3.48624699 C7.7104012,4.55482826 6.17301096,8.30955043 6.14181972,12.8635149 L6.26808789,17.5853394 C6.33084619,19.9380494 3.17339012,22.8580497 1.41803696,25.0352698 C1.41803696,25.0352698 6.39435607,26.6696154 10.7866849,27.4307077 C11.0512468,29.2882308 12.6292232,30.72 14.5307618,30.72 C16.4221539,30.72 17.9937418,29.3038723 18.270705,27.4612277 L18.270705,27.4612277 C22.6506325,26.7104359 27.629958,25.0173393 27.629958,25.0173393" id="Bell" transform="translate(14.523997, 15.943936) rotate(-4.000000) translate(-14.523997, -15.943936) "></path>
            </g>
            <g id="Compass" transform="translate(288.776745, 383.866303)" fill="#E2E2E2">
                <path d="M20.0180405,20.5975467 C18.0079054,22.6602133 15.3356081,23.7958933 12.4930405,23.7958933 C9.65047297,23.7958933 6.97817568,22.6602133 4.96804054,20.5975467 C2.95824324,18.53488 1.85114865,15.7927467 1.85114865,12.8758933 C1.85114865,9.95904 2.95824324,7.21690667 4.96804054,5.15424 C6.97817568,3.09192 9.65047297,1.95589333 12.4930405,1.95589333 C15.3356081,1.95589333 18.0079054,3.09192 20.0180405,5.15424 C22.0281757,7.21690667 23.1349324,9.95904 23.1349324,12.8758933 C23.1349324,15.7927467 22.0281757,18.53488 20.0180405,20.5975467 M12.4930405,0.0838933333 C5.60824324,0.0838933333 0.0268243243,5.81117333 0.0268243243,12.8758933 C0.0268243243,19.9406133 5.60824324,25.6678933 12.4930405,25.6678933 C19.3778378,25.6678933 24.9592568,19.9406133 24.9592568,12.8758933 C24.9592568,5.81117333 19.3778378,0.0838933333 12.4930405,0.0838933333" id="Fill-28"></path>
                <path d="M12.1529392,20.950592 C11.8590203,20.950592 11.6461824,21.194992 11.6461824,21.496592 L11.6461824,23.0260853 C11.6461824,23.3276853 11.8590203,23.5720853 12.1529392,23.5720853 C12.4468581,23.5720853 12.6596959,23.3276853 12.6596959,23.0260853 L12.6596959,21.496592 C12.6596959,21.194992 12.4468581,20.950592 12.1529392,20.950592" id="Fill-30"></path>
                <path d="M12.1529392,4.80122933 C12.4468581,4.80122933 12.6596959,4.55682933 12.6596959,4.25522933 L12.6596959,2.725736 C12.6596959,2.424136 12.4468581,2.179736 12.1529392,2.179736 C11.8590203,2.179736 11.6461824,2.424136 11.6461824,2.725736 L11.6461824,4.25522933 C11.6461824,4.55682933 11.8590203,4.80122933 12.1529392,4.80122933" id="Fill-32"></path>
                <path d="M4.09195946,12.2688453 L2.60141892,12.2688453 C2.3075,12.2688453 2.06932432,12.4872453 2.06932432,12.7888453 C2.06932432,13.0904453 2.3075,13.3088453 2.60141892,13.3088453 L4.09195946,13.3088453 C4.38587838,13.3088453 4.62405405,13.0904453 4.62405405,12.7888453 C4.62405405,12.4872453 4.38587838,12.2688453 4.09195946,12.2688453" id="Fill-34"></path>
                <path d="M22.3847973,12.2688453 L20.8942568,12.2688453 C20.6003378,12.2688453 20.3621622,12.4872453 20.3621622,12.7888453 C20.3621622,13.0904453 20.6003378,13.3088453 20.8942568,13.3088453 L22.3847973,13.3088453 C22.6787162,13.3088453 22.9168919,13.0904453 22.9168919,12.7888453 C22.9168919,12.4872453 22.6787162,12.2688453 22.3847973,12.2688453" id="Fill-36"></path>
                <path d="M12.4137162,13.7295253 L13.3282432,12.7910987 L14.1471622,14.546272 L12.4137162,13.7295253 Z M12.5725,12.0225387 L11.657973,12.9609653 L10.8390541,11.2054453 L12.5725,12.0225387 Z M14.4910811,10.947872 C14.4596622,10.8806187 14.4062838,10.8265387 14.3400676,10.7953387 L7.79783784,7.712432 C7.75358108,7.691632 7.70898649,7.68192533 7.66641892,7.68192533 C7.45290541,7.68192533 7.28195946,7.916272 7.38668919,8.140912 L10.4951351,14.8038453 C10.5265541,14.8714453 10.5799324,14.9255253 10.6461486,14.9563787 L17.1880405,18.039632 C17.2326351,18.060432 17.2772297,18.069792 17.3197973,18.069792 C17.532973,18.069792 17.7042568,17.8354453 17.5991892,17.6108053 L14.4910811,10.947872 Z" id="Fill-38"></path>
            </g>
            <g id="Cloud" transform="translate(235.649097, 231.220975) rotate(-16.000000) translate(-235.649097, -231.220975) translate(218.649097, 219.220975)" fill="#E2E2E2">
                <path d="M25.3265564,21.1160291 L7.11171026,21.1160291 C4.61053077,21.1160291 2.57619744,19.4547927 2.57619744,16.9513745 C2.57619744,14.8629382 3.98719744,13.2396655 6.00758205,12.7343564 C6.93735128,12.5022109 7.63391538,11.8223564 7.76817179,10.8728291 C8.08681282,8.61901091 9.21055641,6.59428364 10.9319154,5.08533818 C12.6685308,3.56330182 14.8981462,2.74817455 17.2101462,2.74817455 C21.0608641,2.74817455 24.5136077,5.05653818 26.0065564,8.61072 C26.2628641,9.22075636 26.7637103,9.70075636 27.3866077,9.92286545 C29.8271974,10.7929745 31.4666077,12.7478836 31.4666077,15.3420655 C31.4666077,18.7313018 28.7121718,21.1160291 25.3265564,21.1160291 M28.1764538,7.70875636 C26.3766333,3.42410182 22.1445051,0.415374545 17.2101462,0.415374545 C11.2135051,0.415374545 6.2543,4.85886545 5.43742821,10.63632 C2.44194103,11.38512 0.222351282,13.8514473 0.222351282,17.0822836 C0.222351282,20.8913018 3.30676154,23.7342109 7.11171026,23.7342109 L25.3265564,23.7342109 C30.0176846,23.7342109 33.8204538,20.1721745 33.8204538,15.4760291 C33.8204538,11.7809018 31.4657359,8.88170182 28.1764538,7.70875636" id="Fill-10"></path>
                <path d="M17.5253436,3.05568 C12.3298821,3.05568 8.10342051,7.28709818 8.10342051,12.48768 C8.10342051,12.8673164 8.41072821,13.1749527 8.78995897,13.1749527 C9.16918974,13.1749527 9.47649744,12.8673164 9.47649744,12.48768 C9.47649744,8.04506182 13.0870359,4.43022545 17.5253436,4.43022545 C17.9045744,4.43022545 18.2118821,4.12258909 18.2118821,3.74295273 C18.2118821,3.36331636 17.9045744,3.05568 17.5253436,3.05568" id="Fill-12"></path>
            </g>
            <g id="Group" transform="translate(235.776745, 343.866303)" stroke="#E2E2E2" stroke-width="3" stroke-linecap="round">
                <polyline id="Rectangle" stroke-linejoin="round" transform="translate(7.733333, 10.322581) rotate(45.000000) translate(-7.733333, -10.322581) " points="12.8888889 15.483871 2.57777778 15.483871 2.57777778 5.16129032 2.57777778 5.16129032"></polyline>
                <polyline id="Rectangle" stroke-linejoin="round" transform="translate(24.266667, 10.322581) scale(-1, 1) rotate(45.000000) translate(-24.266667, -10.322581) " points="29.4222222 15.483871 19.1111111 15.483871 19.1111111 5.16129032 19.1111111 5.16129032"></polyline>
                <path d="M19.7222222,0.322580645 L13.9222222,19.6774194" id="Line"></path>
            </g>
            <g id="pc" transform="translate(93.570341, 494.659899) rotate(11.000000) translate(-93.570341, -494.659899) translate(71.570341, 472.659899)">
                <rect id="cont" fill="#E2E2E2" opacity="0" x="0" y="2.84217094e-14" width="44" height="43.9022222"></rect>
                <path d="M2,7.99588275 C2,6.88622335 2.89153983,5.98666667 3.99729162,5.98666667 L40.0027084,5.98666667 C41.1057821,5.98666667 42,6.88456441 42,7.99588275 L42,31.9152284 C42,33.0248878 41.1084602,33.9244444 40.0027084,33.9244444 L3.99729162,33.9244444 C2.89421792,33.9244444 2,33.0265467 2,31.9152284 L2,7.99588275 Z" id="Rectangle-24" stroke="#E2E2E2" stroke-width="2"></path>
                <path d="M18,33.9244444 L17,39.9111111" id="Path-57" stroke="#E2E2E2" stroke-width="2"></path>
                <path d="M26,33.9244444 L27,39.9111111" id="Path-57-Copy" stroke="#E2E2E2" stroke-width="2"></path>
                <path d="M15,39.9111111 L29,39.9111111" id="Path-58" stroke="#E2E2E2" stroke-width="2" stroke-linecap="round"></path>
                <path d="M3,28.9355556 L41,28.9355556" id="Path-17" stroke="#E2E2E2" stroke-width="2"></path>
            </g>
            <g id="user" transform="translate(415.293886, 414.383444) rotate(7.000000) translate(-415.293886, -414.383444) translate(393.293886, 392.383444)">
                <rect id="cont" fill="#E2E2E2" opacity="0" x="-5.45696821e-12" y="3.90798505e-13" width="44" height="44"></rect>
                <path d="M29,11 L29,14 C29,17.8659932 25.8659932,21 22,21 C18.1340068,21 15,17.8659932 15,14 L15,10" id="Oval-26" stroke="#E2E2E2" stroke-width="2" stroke-linecap="round" stroke-linejoin="round"></path>
                <path d="M27.8669436,25.1330564 C34.1621396,26.0384117 39,31.4542344 39,38 L39,38.9989566 C39,40.0999011 38.1046051,41 37.0000796,41 L6.9999204,41 C5.89194115,41 5,40.1041023 5,38.9989566 L5,38 C5,31.4542344 9.83786037,26.0384117 16.1330564,25.1330564 L22,31 L27.8669436,25.1330564 Z" id="Oval-28" stroke="#E2E2E2" stroke-width="2" stroke-linecap="round" stroke-linejoin="round"></path>
                <path d="M15,11 L15,9.00208688 C15,6.79179533 16.7894101,5 19,5 L19,5 L19,2 L24.5847454,3.11694908 C27.0232232,3.60464464 29,6.02469003 29,8.49261107 L29,11" id="Path-187" stroke="#E2E2E2" stroke-width="2" stroke-linecap="round" stroke-linejoin="round" transform="translate(22.000000, 6.500000) scale(-1, 1) translate(-22.000000, -6.500000) "></path>
                <path d="M29,13 C29,10.790861 27.209139,9 25,9 L19,9" id="Oval-43" stroke="#E2E2E2" stroke-width="2" stroke-linecap="round" stroke-linejoin="round"></path>
                <path d="M15.7966635,7.39594274 C16.5262393,8.3698074 17.689525,9 19,9" id="Oval-43" stroke="#E2E2E2" stroke-width="2" stroke-linecap="round" stroke-linejoin="round"></path>
            </g>
            <g id="pencil" transform="translate(158.776745, 573.866303)">
                <rect id="cont" fill="#E2E2E2" opacity="0" x="0" y="0" width="44" height="44"></rect>
                <path d="M9,7 L13,3 L17,7 L17,39.0000796 C17,40.1046051 16.1132936,41 15.0018986,41 L10.9981014,41 C9.89458045,41 9,40.1080589 9,39.0000796 L9,7 Z" id="Rectangle-34-Copy" stroke="#E2E2E2" stroke-width="2" stroke-linejoin="round" transform="translate(13.000000, 22.000000) scale(1, -1) translate(-13.000000, -22.000000) "></path>
                <rect id="Rectangle-34-Copy-3" stroke="#E2E2E2" stroke-width="2" stroke-linejoin="round" x="24" y="3" width="12" height="38" rx="2"></rect>
                <path d="M9,9 L17,9" id="Path-51" stroke="#E2E2E2" stroke-width="2" transform="translate(13.000000, 9.000000) scale(1, -1) translate(-13.000000, -9.000000) "></path>
                <path d="M24,10 L28,10" id="Path-55" stroke="#E2E2E2" stroke-width="2" stroke-linecap="round"></path>
                <path d="M24,18 L30,18" id="Path-55-Copy" stroke="#E2E2E2" stroke-width="2" stroke-linecap="round"></path>
                <path d="M24,26 L28,26" id="Path-55-Copy-3" stroke="#E2E2E2" stroke-width="2" stroke-linecap="round"></path>
                <path d="M24,34 L30,34" id="Path-55-Copy-4" stroke="#E2E2E2" stroke-width="2" stroke-linecap="round"></path>
                <path d="M9,19 L7,19 C5.8954305,19 5,18.1125667 5,17.000385 L5,9" id="Path-52" stroke="#E2E2E2" stroke-width="2" stroke-linecap="round" transform="translate(7.000000, 14.000000) scale(1, -1) translate(-7.000000, -14.000000) "></path>
            </g>
            <g id="pen" transform="translate(274.247627, 467.337185) rotate(-17.000000) translate(-274.247627, -467.337185) translate(252.247627, 445.337185)">
                <rect id="cont" fill="#E2E2E2" opacity="0" x="1.13686838e-13" y="5.68434189e-14" width="44" height="44"></rect>
                <path d="M15,29 L15,24 L34.5895224,4.41047756 C35.3685077,3.63149232 36.6332535,3.63325346 37.419425,4.41942501 L39.580575,6.58057499 C40.3645018,7.36450178 40.3715117,8.62848829 39.5895224,9.41047756 L20,29 L15,29 Z" id="Path-142" stroke="#E2E2E2" stroke-width="2" stroke-linecap="round" stroke-linejoin="round"></path>
                <path d="M32,7 L37,12" id="Path-140" stroke="#E2E2E2" stroke-width="2" stroke-linecap="round" stroke-linejoin="round"></path>
                <path d="M10,41 L30,41 L38,41 C39.6568542,41 41,39.6568542 41,38 C41,36.3431458 39.6568542,35 38,35 L6,35 C4.34314575,35 3,33.6568542 3,32 C3,30.3431458 4.34314575,29 6,29 L11,29" id="Path" stroke="#E2E2E2" stroke-width="2" stroke-linecap="round" stroke-linejoin="round"></path>
            </g>
            <g id="cable" transform="translate(254.163757, 114.945063) rotate(7.000000) translate(-254.163757, -114.945063) translate(237.163757, 97.945063)">
                <rect id="cont" fill="#E2E2E2" opacity="0" x="-2.84217094e-14" y="-2.84217094e-14" width="33.9829514" height="33.9829514"></rect>
                <rect id="Rectangle-90" stroke="#E2E2E2" stroke-width="2" stroke-linecap="round" stroke-linejoin="round" x="3.08935922" y="6.17871844" width="6.17871844" height="7.72339805" rx="2"></rect>
                <rect id="Rectangle-90-Copy-2" stroke="#E2E2E2" stroke-width="2" stroke-linecap="round" stroke-linejoin="round" x="24.7148738" y="20.0808349" width="6.17871844" height="7.72339805" rx="2"></rect>
                <rect id="Rectangle-90-Copy" stroke="#E2E2E2" stroke-width="2" stroke-linecap="round" stroke-linejoin="round" x="4.63403883" y="2.31701942" width="3.08935922" height="3.86169903"></rect>
                <rect id="Rectangle-90-Copy-3" stroke="#E2E2E2" stroke-width="2" stroke-linecap="round" stroke-linejoin="round" x="26.2595534" y="27.804233" width="3.08935922" height="3.86169903"></rect>
                <path d="M6.17871844,14.6744563 L6.17871844,26.3023295 C6.17871844,29.2454138 8.5992366,31.665932 11.5850971,31.665932 L11.5850971,31.665932 C14.5709575,31.665932 16.9914757,29.2454138 16.9914757,26.2595534 L16.9914757,7.72339808 C16.9914757,4.73753758 19.4119939,2.31701942 22.3978543,2.31701942 L22.3978543,2.31701942 C25.3837148,2.31701942 27.804233,4.73753758 27.804233,7.72339808 L27.804233,20.080835" id="Path-118" stroke="#E2E2E2" stroke-width="2" stroke-linecap="round" stroke-linejoin="round"></path>
            </g>
        </g>
    </g>
</svg>